<svg width="718" height="365" viewBox="0 0 718 365" fill="none" xmlns="http://www.w3.org/2000/svg">
<path d="M458.509 18.0399C345.699 2.26991 136.289 0.749908 40.6087 137.2C-43.1213 256.6 56.6687 405.81 260.579 335.5C370.999 297.42 420.629 340.92 538.249 332.45C627.129 326.04 698.929 268.1 706.409 192.49C716.299 92.7399 630.619 42.0699 458.509 18.0399Z" fill="white"/>
<path d="M162.319 364.36C94.4394 364.35 47.9194 335.43 23.9194 300.79C-10.0506 251.74 -6.85057 186.6 32.2794 130.8C76.0494 68.3797 146.379 27.6997 241.309 9.89973C329.359 -6.61027 416.039 1.19973 459.869 7.32973C550.519 19.9897 614.769 39.7597 656.299 67.7797C701.609 98.3497 721.919 140.69 716.669 193.61C708.769 273.45 634.029 336.38 538.959 343.24C490.209 346.76 452.229 341.43 418.709 336.73C369.599 329.85 327.179 323.9 263.799 345.77C225.939 358.83 192.079 364.38 162.319 364.37M355.539 21.6597C255.779 21.6397 119.799 42.3797 48.9194 143.47C15.2894 191.43 12.1194 246.8 40.6294 287.97C70.8594 331.63 143.679 364.31 257.349 325.11C325.229 301.7 371.969 308.25 421.449 315.18C455.579 319.96 490.869 324.91 537.539 321.55C622.579 315.42 689.279 260.62 696.139 191.25C704.879 103.07 631.169 52.9197 457.129 28.6297C435.839 25.6497 399.129 21.6697 355.529 21.6597" fill="white"/>
<path d="M40.5988 137.2C136.279 0.749542 345.689 2.27954 458.499 18.0395C630.619 42.0695 716.299 92.7395 706.399 192.49C698.919 268.1 627.129 326.04 538.239 332.46C420.619 340.92 370.989 297.42 260.569 335.51C56.6488 405.82 -43.1313 256.61 40.5887 137.21" fill="#83BB26"/>
<mask id="mask0_1488_857" style="mask-type:luminance" maskUnits="userSpaceOnUse" x="21" y="16" width="677" height="329">
<path d="M50.1385 137.049C-30.9515 251.489 66.1785 394.909 264.009 327.789C329.479 305.589 372.959 312.579 422.919 319.579C454.719 324.029 489.149 328.479 533.559 325.409C619.829 319.419 689.409 263.939 696.559 191.369C705.999 95.6293 622.729 46.8393 455.619 23.4593C426.789 19.4193 391.479 16.3193 353.399 16.3193C246.749 16.3193 118.399 40.6793 50.1385 137.069" fill="white"/>
</mask>
<g mask="url(#mask0_1488_857)">
<path d="M705.989 30.3396L-30.9414 28.1696L-30.9314 6.30957L705.989 6.47957V30.3396Z" fill="#D8DA00"/>
<path d="M705.989 33.2096L-30.9414 31.0596V28.0596L705.989 30.1996V33.2096Z" fill="#D8DA00"/>
<path d="M705.989 36.3492L-30.9414 34.1992V31.1992L705.989 33.3492V36.3492Z" fill="#D7D900"/>
<path d="M705.989 39.2096L-30.9414 37.0696V34.0596L705.989 36.2096V39.2096Z" fill="#D6D900"/>
<path d="M705.989 42.36L-30.9414 40.22V37.21L705.989 39.36V42.36Z" fill="#D5D900"/>
<path d="M705.989 45.5094L-30.9414 43.3594V40.3594L705.989 42.5094V45.5094Z" fill="#D4D800"/>
<path d="M705.989 48.3697L-30.9414 46.2197V43.2197L705.989 45.3697V48.3697Z" fill="#D3D800"/>
<path d="M705.989 51.5191L-30.9414 49.3691V46.3691L705.989 48.5091V51.5191Z" fill="#D2D800"/>
<path d="M705.989 54.3795L-30.9414 52.2295V49.2295L705.989 51.3795V54.3795Z" fill="#D2D700"/>
<path d="M705.989 57.5191L-30.9414 55.3791V52.3691L705.989 54.5191V57.5191Z" fill="#D1D700"/>
<path d="M705.989 60.6695L-30.9414 58.5295V55.5195L705.989 57.6695V60.6695Z" fill="#D0D700"/>
<path d="M705.989 63.5396L-30.9414 61.3896V58.3896L705.989 60.5296V63.5396Z" fill="#CFD600"/>
<path d="M705.989 66.6793L-30.9414 64.5293V61.5293L705.989 63.6793V66.6793Z" fill="#CED600"/>
<path d="M705.989 69.8297L-30.9414 67.6797V64.6797L705.989 66.8297V69.8297Z" fill="#CDD500"/>
<path d="M705.989 72.69L-30.9414 70.54V67.54L705.989 69.69V72.69Z" fill="#CCD500"/>
<path d="M705.989 75.8394L-30.9414 73.6895V70.6895L705.989 72.8394V75.8394Z" fill="#CBD500"/>
<path d="M705.989 78.6998L-30.9414 76.5498V73.5498L705.989 75.6998V78.6998Z" fill="#CAD400"/>
<path d="M705.989 81.8492L-30.9414 79.6992V76.6992L705.989 78.8492V81.8492Z" fill="#C9D400"/>
<path d="M705.989 84.9996L-30.9414 82.8496V79.8496L705.989 81.9896V84.9996Z" fill="#C8D400"/>
<path d="M705.989 87.8492L-30.9414 85.7092V82.6992L705.989 84.8492V87.8492Z" fill="#C7D300"/>
<path d="M705.989 90.9996L-30.9414 88.8596V85.8496L705.989 87.9996V90.9996Z" fill="#C6D300"/>
<path d="M705.989 94.15L-30.9414 92V89L705.989 91.15V94.15Z" fill="#C5D300"/>
<path d="M705.989 97.0094L-30.9414 94.8594V91.8594L705.989 94.0094V97.0094Z" fill="#C5D200"/>
<path d="M705.989 100.16L-30.9414 98.0098V95.0098L705.989 97.1598V100.16Z" fill="#C4D200"/>
<path d="M705.989 103.019L-30.9414 100.869V97.8691L705.989 100.019V103.019Z" fill="#C3D100"/>
<path d="M705.989 106.17L-30.9414 104.02V101.02L705.989 103.17V106.17Z" fill="#C2D100"/>
<path d="M705.989 109.32L-30.9414 107.17V104.17L705.989 106.32V109.32Z" fill="#C1D100"/>
<path d="M705.989 112.179L-30.9414 110.029V107.029L705.989 109.169V112.179Z" fill="#C0D000"/>
<path d="M705.989 115.32L-30.9414 113.18V110.17L705.989 112.32V115.32Z" fill="#BFD000"/>
<path d="M705.989 118.469L-30.9414 116.319V113.319L705.989 115.469V118.469Z" fill="#BED000"/>
<path d="M705.989 121.33L-30.9414 119.18V116.18L705.989 118.33V121.33Z" fill="#BDCF00"/>
<path d="M705.989 124.479L-30.9414 122.329V119.329L705.989 121.479V124.479Z" fill="#BCCF00"/>
<path d="M705.989 127.339L-30.9414 125.189V122.189L705.989 124.339V127.339Z" fill="#BBCF00"/>
<path d="M705.989 130.49L-30.9414 128.34V125.34L705.989 127.49V130.49Z" fill="#BACE00"/>
<path d="M705.989 133.639L-30.9414 131.489V128.489L705.989 130.639V133.639Z" fill="#B9CE00"/>
<path d="M705.989 136.5L-30.9414 134.35V131.34L705.989 133.5V136.5Z" fill="#B8CD00"/>
<path d="M705.989 139.65L-30.9414 137.5V134.5L705.989 136.65V139.65Z" fill="#B7CD00"/>
<path d="M705.989 142.79L-30.9414 140.64V137.64L705.989 139.79V142.79Z" fill="#B6CD02"/>
<path d="M705.989 145.65L-30.9414 143.51V140.51L705.989 142.65V145.65Z" fill="#B5CC03"/>
<path d="M705.989 148.799L-30.9414 146.659V143.649L705.989 145.799V148.799Z" fill="#B4CC05"/>
<path d="M705.989 151.95L-30.9414 149.8V146.8L705.989 148.95V151.95Z" fill="#B3CC06"/>
<path d="M705.989 154.809L-30.9414 152.659V149.659L705.989 151.809V154.809Z" fill="#B2CB07"/>
<path d="M705.989 157.96L-30.9414 155.81V152.81L705.989 154.96V157.96Z" fill="#B1CB09"/>
<path d="M705.989 160.82L-30.9414 158.67V155.67L705.989 157.82V160.82Z" fill="#B0CA0A"/>
<path d="M705.989 163.969L-30.9414 161.819V158.819L705.989 160.969V163.969Z" fill="#AFCA0C"/>
<path d="M705.989 167.11L-30.9414 164.97V161.96L705.989 164.11V167.11Z" fill="#AECA0D"/>
<path d="M705.989 169.979L-30.9414 167.829V164.819L705.989 166.969V169.979Z" fill="#ADC90E"/>
<path d="M705.989 173.12L-30.9414 170.97V167.97L705.989 170.12V173.12Z" fill="#ACC90F"/>
<path d="M705.989 176.269L-30.9414 174.119V171.119L705.989 173.269V176.269Z" fill="#ABC910"/>
<path d="M705.989 179.13L-30.9414 176.99V173.979L705.989 176.13V179.13Z" fill="#AAC811"/>
<path d="M705.989 182.279L-30.9414 180.129V177.119L705.989 179.279V182.279Z" fill="#A9C812"/>
<path d="M705.989 185.139L-30.9414 182.989V179.989L705.989 182.139V185.139Z" fill="#A8C813"/>
<path d="M705.989 188.29L-30.9414 186.14V183.14L705.989 185.28V188.29Z" fill="#A7C714"/>
<path d="M705.989 191.44L-30.9414 189.29V186.29L705.989 188.43V191.44Z" fill="#A6C715"/>
<path d="M705.989 194.299L-30.9414 192.149V189.149L705.989 191.299V194.299Z" fill="#A5C615"/>
<path d="M705.989 197.44L-30.9414 195.3V192.29L705.989 194.44V197.44Z" fill="#A4C616"/>
<path d="M705.989 200.589L-30.9414 198.449V195.439L705.989 197.589V200.589Z" fill="#A2C617"/>
<path d="M705.989 201.74L-30.9414 199.57V198.3L705.989 200.47V201.74Z" fill="#A2C617"/>
<path d="M705.989 203.169L-30.9414 200.999V199.729L705.989 201.899V203.169Z" fill="#A1C518"/>
<path d="M705.989 204.31L-30.9414 202.14V200.88L705.989 203.04V204.31Z" fill="#A0C518"/>
<path d="M705.989 205.45L-30.9414 203.29V202.02L705.989 204.19V205.45Z" fill="#9FC519"/>
<path d="M705.989 206.89L-30.9414 204.72V203.46L705.989 205.62V206.89Z" fill="#9EC41A"/>
<path d="M705.989 208.03L-30.9414 205.86V204.6L705.989 206.76V208.03Z" fill="#9DC41A"/>
<path d="M705.989 209.459L-30.9414 207.299V206.029L705.989 208.199V209.459Z" fill="#9CC41B"/>
<path d="M705.989 210.61L-30.9414 208.44V207.17L705.989 209.34V210.61Z" fill="#9BC31B"/>
<path d="M705.989 212.04L-30.9414 209.87V208.6L705.989 210.77V212.04Z" fill="#9AC31C"/>
<path d="M705.989 213.18L-30.9414 211.01V209.75L705.989 211.91V213.18Z" fill="#99C21D"/>
<path d="M705.989 214.61L-30.9414 212.45V211.18L705.989 213.34V214.61Z" fill="#98C21D"/>
<path d="M705.989 215.759L-30.9414 213.589V212.319L705.989 214.489V215.759Z" fill="#97C21E"/>
<path d="M705.989 216.9L-30.9414 214.74V213.47L705.989 215.64V216.9Z" fill="#96C11E"/>
<path d="M705.989 218.329L-30.9414 216.169V214.899L705.989 217.059V218.329Z" fill="#95C11F"/>
<path d="M705.989 219.47L-30.9414 217.31V216.04L705.989 218.21V219.47Z" fill="#94C11F"/>
<path d="M705.989 220.91L-30.9414 218.74V217.47L705.989 219.64V220.91Z" fill="#93C020"/>
<path d="M705.989 222.049L-30.9414 219.889V218.619L705.989 220.789V222.049Z" fill="#91C020"/>
<path d="M705.989 223.48L-30.9414 221.32V220.04L705.989 222.21V223.48Z" fill="#90C021"/>
<path d="M705.989 224.629L-30.9414 222.459V221.189L705.989 223.359V224.629Z" fill="#8FBF21"/>
<path d="M705.989 226.059L-30.9414 223.889V222.619L705.989 224.789V226.059Z" fill="#8EBF22"/>
<path d="M705.989 227.2L-30.9414 225.04V223.77L705.989 225.93V227.2Z" fill="#8DBE22"/>
<path d="M705.989 228.629L-30.9414 226.469V225.199L705.989 227.359V228.629Z" fill="#8CBE23"/>
<path d="M705.989 229.78L-30.9414 227.61V226.34L705.989 228.51V229.78Z" fill="#8ABE23"/>
<path d="M705.989 230.919L-30.9414 228.759V227.489L705.989 229.649V230.919Z" fill="#89BD24"/>
<path d="M705.989 232.35L-30.9414 230.19V228.92L705.989 231.08V232.35Z" fill="#88BD24"/>
<path d="M705.989 233.5L-30.9414 231.33V230.06L705.989 232.23V233.5Z" fill="#87BD25"/>
<path d="M705.989 234.929L-30.9414 232.759V231.489L705.989 233.659V234.929Z" fill="#86BC25"/>
<path d="M705.989 236.07L-30.9414 233.91V232.64L705.989 234.8V236.07Z" fill="#84BC26"/>
<path d="M705.989 237.499L-30.9414 235.339V234.069L705.989 236.229V237.499Z" fill="#83BB26"/>
<path d="M705.989 238.65L-30.9414 236.48V235.21L705.989 237.38V238.65Z" fill="#82BB27"/>
<path d="M705.989 240.08L-30.9414 237.91V236.64L705.989 238.81V240.08Z" fill="#80BB27"/>
<path d="M705.989 241.22L-30.9414 239.06V237.79L705.989 239.95V241.22Z" fill="#7FBA27"/>
<path d="M705.989 242.37L-30.9414 240.2V238.93L705.989 241.1V242.37Z" fill="#7EBA28"/>
<path d="M705.989 243.799L-30.9414 241.629V240.359L705.989 242.529V243.799Z" fill="#7DB928"/>
<path d="M705.989 244.94L-30.9414 242.78V241.51L705.989 243.67V244.94Z" fill="#7CB929"/>
<path d="M705.989 246.369L-30.9414 244.209V242.939L705.989 245.099V246.369Z" fill="#7AB929"/>
<path d="M705.989 247.519L-30.9414 245.349V244.079L705.989 246.239V247.519Z" fill="#79B829"/>
<path d="M705.989 248.94L-30.9414 246.78V245.51L705.989 247.68V248.94Z" fill="#78B82A"/>
<path d="M705.989 250.089L-30.9414 247.929V246.659L705.989 248.819V250.089Z" fill="#76B82A"/>
<path d="M705.989 251.52L-30.9414 249.36V248.09L705.989 250.26V251.52Z" fill="#75B72A"/>
<path d="M705.989 252.669L-30.9414 250.499V249.229L705.989 251.399V252.669Z" fill="#74B72B"/>
<path d="M705.989 254.1L-30.9414 251.93V250.67L705.989 252.83V254.1Z" fill="#72B62B"/>
<path d="M705.989 255.24L-30.9414 253.08V251.81L705.989 253.97V255.24Z" fill="#71B62C"/>
<path d="M705.989 256.389L-30.9414 254.219V252.949L705.989 255.109V256.389Z" fill="#70B62C"/>
<path d="M705.989 257.82L-30.9414 255.65V254.39L705.989 256.55V257.82Z" fill="#6EB52C"/>
<path d="M705.989 258.959L-30.9414 256.799V255.529L705.989 257.689V258.959Z" fill="#6DB52D"/>
<path d="M705.989 260.39L-30.9414 258.23V256.96L705.989 259.13V260.39Z" fill="#6CB52D"/>
<path d="M705.989 261.539L-30.9414 259.369V258.109L705.989 260.269V261.539Z" fill="#6AB42D"/>
<path d="M705.989 262.97L-30.9414 260.8V259.54L705.989 261.7V262.97Z" fill="#69B42E"/>
<path d="M705.989 264.11L-30.9414 261.94V260.68L705.989 262.84V264.11Z" fill="#67B42E"/>
<path d="M705.989 265.539L-30.9414 263.379V262.109L705.989 264.279V265.539Z" fill="#66B32E"/>
<path d="M705.989 266.69L-30.9414 264.52V263.26L705.989 265.42V266.69Z" fill="#65B32E"/>
<path d="M705.989 267.829L-30.9414 265.659V264.399L705.989 266.559V267.829Z" fill="#63B32F"/>
<path d="M705.989 269.259L-30.9414 267.099V265.829L705.989 267.989V269.259Z" fill="#62B22F"/>
<path d="M705.989 270.409L-30.9414 268.239V266.979L705.989 269.139V270.409Z" fill="#60B22F"/>
<path d="M705.989 271.839L-30.9414 269.669V268.409L705.989 270.569V271.839Z" fill="#5FB130"/>
<path d="M705.989 272.98L-30.9414 270.82V269.55L705.989 271.72V272.98Z" fill="#5DB130"/>
<path d="M705.989 274.409L-30.9414 272.249V270.979L705.989 273.139V274.409Z" fill="#5CB130"/>
<path d="M705.989 275.56L-30.9414 273.39V272.13L705.989 274.29V275.56Z" fill="#5AB031"/>
<path d="M705.989 276.99L-30.9414 274.82V273.55L705.989 275.72V276.99Z" fill="#59B031"/>
<path d="M705.989 278.129L-30.9414 275.969V274.699L705.989 276.859V278.129Z" fill="#57B031"/>
<path d="M705.989 279.56L-30.9414 277.4V276.13L705.989 278.29V279.56Z" fill="#56AF31"/>
<path d="M705.989 280.71L-30.9414 278.54V277.27L705.989 279.44V280.71Z" fill="#54AF32"/>
<path d="M705.989 281.85L-30.9414 279.69V278.42L705.989 280.59V281.85Z" fill="#52AF32"/>
<path d="M705.989 283.28L-30.9414 281.12V279.85L705.989 282.01V283.28Z" fill="#51AE32"/>
<path d="M705.989 284.43L-30.9414 282.26V281L705.989 283.16V284.43Z" fill="#4FAE32"/>
<path d="M705.989 285.86L-30.9414 283.69V282.42L705.989 284.59V285.86Z" fill="#4DAD33"/>
<path d="M705.989 286.999L-30.9414 284.839V283.569L705.989 285.729V286.999Z" fill="#4BAD33"/>
<path d="M705.989 288.43L-30.9414 286.27V285L705.989 287.16V288.43Z" fill="#4AAD33"/>
<path d="M705.989 289.58L-30.9414 287.41V286.14L705.989 288.31V289.58Z" fill="#48AC33"/>
<path d="M705.989 291.009L-30.9414 288.849V287.569L705.989 289.739V291.009Z" fill="#46AC34"/>
<path d="M705.989 292.15L-30.9414 289.99V288.72L705.989 290.88V292.15Z" fill="#45AC34"/>
<path d="M705.989 293.299L-30.9414 291.129V289.859L705.989 292.029V293.299Z" fill="#43AB34"/>
<path d="M705.989 294.73L-30.9414 292.56V291.29L705.989 293.46V294.73Z" fill="#41AB34"/>
<path d="M705.989 295.869L-30.9414 293.709V292.439L705.989 294.599V295.869Z" fill="#3FAB35"/>
<path d="M705.989 297.309L-30.9414 295.139V293.869L705.989 296.039V297.309Z" fill="#3DAA35"/>
<path d="M705.989 298.45L-30.9414 296.28V295.01L705.989 297.18V298.45Z" fill="#3AAA35"/>
<path d="M705.989 299.879L-30.9414 297.719V296.439L705.989 298.609V299.879Z" fill="#38AA35"/>
<path d="M705.989 301.03L-30.9414 298.86V297.59L705.989 299.75V301.03Z" fill="#36A936"/>
<path d="M705.989 302.45L-30.9414 300.29V299.02L705.989 301.19V302.45Z" fill="#34A936"/>
<path d="M705.989 303.599L-30.9414 301.429V300.159L705.989 302.329V303.599Z" fill="#31A836"/>
<path d="M705.989 305.03L-30.9414 302.86V301.6L705.989 303.76V305.03Z" fill="#2EA836"/>
<path d="M-30.9214 302.739L705.989 304.919L705.969 395.159L-30.9414 394.999L-30.9214 302.739Z" fill="#2EA836"/>
</g>
<path d="M69.6895 176.5C133.539 45.9402 299.569 24.4602 414.869 27.4902C588.389 32.0602 675.019 93.9602 674.389 175.39C673.979 226.44 628.399 275.94 570.649 291.76C475.889 317.72 392.899 280.21 298.859 315.35C107.979 386.67 19.6995 278.72 69.6895 176.5Z" fill="#003E99"/>
<mask id="mask1_1488_857" style="mask-type:luminance" maskUnits="userSpaceOnUse" x="73" y="36" width="584" height="294">
<path d="M86.8887 176.86C39.7987 273.15 122.959 374.8 302.709 307.64C349.959 289.98 394.279 291.81 438.899 293.64C477.879 295.24 517.079 296.84 558.689 285.44C613.069 270.53 655.999 223.92 656.389 175.83C656.969 99.1398 575.389 40.8398 411.969 36.5498C405.839 36.3898 399.559 36.2998 393.139 36.2998C286.039 36.2998 143.609 60.8598 86.8887 176.86Z" fill="white"/>
</mask>
<g mask="url(#mask1_1488_857)">
<path d="M466.549 33.5902L39.8086 75.6202L39.8186 33.4902L466.549 33.5902Z" fill="#77BBE8"/>
<path d="M472.549 33.7803L39.8086 76.4103V75.8203L466.549 33.7803H472.549Z" fill="#77BBE8"/>
<path d="M478.539 33.7803L39.8086 77.0003V76.4103L472.549 33.7803H478.539Z" fill="#75BAE8"/>
<path d="M484.539 33.7803L39.8086 77.5903V77.0003L478.549 33.7803H484.539Z" fill="#74BAE8"/>
<path d="M490.539 33.7803L39.8086 78.1803V77.5903L484.539 33.7803H490.539Z" fill="#72B9E7"/>
<path d="M496.529 33.7803L39.7988 78.7703V78.1803L490.539 33.7803H496.529Z" fill="#70B8E7"/>
<path d="M502.529 33.7803L39.7988 79.3703V78.7703L496.529 33.7803H502.529Z" fill="#6FB8E7"/>
<path d="M508.529 33.7803L39.8086 79.9603V79.3603L502.539 33.7803H508.529Z" fill="#6DB7E6"/>
<path d="M514.529 33.7803L39.8086 80.5503V79.9603L508.539 33.7803H514.529Z" fill="#6BB6E6"/>
<path d="M520.529 33.7803L39.8086 81.1403V80.5403L514.529 33.7803H520.529Z" fill="#6AB6E6"/>
<path d="M526.519 33.7803L39.7988 81.7303V81.1403L520.529 33.7803H526.519Z" fill="#68B5E6"/>
<path d="M532.519 33.7803L39.7988 82.3203V81.7303L526.519 33.7803H532.519Z" fill="#67B5E5"/>
<path d="M538.519 33.7803L39.8086 82.9103V82.3203L532.529 33.7803H538.519Z" fill="#65B4E5"/>
<path d="M544.519 33.7803L39.8086 83.5003V82.9103L538.529 33.7803H544.519Z" fill="#63B3E5"/>
<path d="M550.519 33.7803L39.8086 84.0903V83.5003L544.519 33.7803H550.519Z" fill="#62B3E4"/>
<path d="M556.509 33.7803L39.8086 84.6903V84.0903L550.519 33.7803H556.509Z" fill="#60B2E4"/>
<path d="M562.509 33.7803L39.8086 85.2703V84.6803L556.509 33.7803H562.509Z" fill="#5EB1E4"/>
<path d="M568.509 33.7803L39.7988 85.8703V85.2703L562.509 33.7803H568.509Z" fill="#5CB1E4"/>
<path d="M574.509 33.7803L39.7988 86.4503V85.8703L568.509 33.7803H574.509Z" fill="#5BB0E3"/>
<path d="M580.499 33.7803L39.7988 87.0503V86.4503L574.509 33.7803H580.499Z" fill="#59AFE3"/>
<path d="M586.499 33.7803L39.8086 87.6403V87.0503L580.509 33.7803H586.499Z" fill="#57AFE3"/>
<path d="M592.499 33.7803L39.8086 88.2303V87.6403L586.499 33.7803H592.499Z" fill="#55AEE2"/>
<path d="M598.499 33.7803L39.7988 88.8203V88.2303L592.499 33.7803H598.499Z" fill="#53AEE2"/>
<path d="M604.489 33.7803L39.7988 89.4103V88.8203L598.499 33.7803H604.489Z" fill="#52ADE2"/>
<path d="M610.489 33.7803L39.7988 90.0003V89.4103L604.489 33.7803H610.489Z" fill="#4FACE1"/>
<path d="M616.489 33.7803L39.8086 90.5903V90.0003L610.499 33.7803H616.489Z" fill="#4EACE1"/>
<path d="M622.489 33.7803L39.8086 91.1803V90.5903L616.489 33.7803H622.489Z" fill="#4CABE1"/>
<path d="M628.489 33.7803L39.8086 91.7703V91.1803L622.489 33.7803H628.489Z" fill="#4AABE1"/>
<path d="M634.479 33.7803L39.8086 92.3703V91.7703L628.489 33.7803H634.479Z" fill="#48AAE0"/>
<path d="M640.479 33.7803L39.8086 92.9503V92.3603L634.479 33.7803H640.479Z" fill="#45AAE0"/>
<path d="M646.479 33.7803L39.7988 93.5503V92.9503L640.479 33.7803H646.479Z" fill="#44A9E0"/>
<path d="M652.479 33.7803L39.7988 94.1403V93.5503L646.479 33.7803H652.479Z" fill="#41A8E0"/>
<path d="M656.929 33.7803L656.939 33.9303L39.8086 94.7303V94.1403L652.479 33.7803H656.929Z" fill="#3FA8DF"/>
<path d="M656.819 33.9199L656.829 34.0699V34.5099L39.8086 95.2999V94.7099L656.819 33.9199Z" fill="#3CA7DF"/>
<path d="M656.819 35.0998L39.7988 95.8898V95.2998L656.819 34.5098V35.0998Z" fill="#3AA7DF"/>
<path d="M656.819 35.6906L39.7988 96.4806V95.8906L656.819 35.1006V35.6906Z" fill="#38A6DE"/>
<path d="M656.819 36.2904L39.7988 97.0804V96.4804L656.819 35.6904V36.2904Z" fill="#35A5DE"/>
<path d="M656.819 36.88L39.7988 97.67V97.08L656.819 36.29V36.88Z" fill="#32A5DE"/>
<path d="M656.819 37.4699L39.7988 98.2599V97.6699L656.819 36.8799V37.4699Z" fill="#30A4DE"/>
<path d="M656.819 38.0607L39.7988 98.8507V98.2607L656.819 37.4707V38.0607Z" fill="#2CA4DD"/>
<path d="M656.819 38.6605L39.7988 99.4505V98.8505L656.819 38.0605V38.6605Z" fill="#2AA3DD"/>
<path d="M656.819 39.2502L39.7988 100.04V99.4502L656.819 38.6602V39.2502Z" fill="#27A3DD"/>
<path d="M656.819 39.8402L39.7988 100.63V100.03L656.819 39.2402V39.8402Z" fill="#22A2DC"/>
<path d="M656.819 40.4298L39.7988 101.22V100.63L656.819 39.8398V40.4298Z" fill="#1FA2DC"/>
<path d="M656.819 41.0207L39.7988 101.811V101.221L656.819 40.4307V41.0207Z" fill="#1BA1DC"/>
<path d="M656.819 41.6105L39.7988 102.401V101.811L656.819 41.0205V41.6105Z" fill="#14A0DC"/>
<path d="M656.819 42.2104L39.7988 103V102.4L656.819 41.6104V42.2104Z" fill="#0EA0DB"/>
<path d="M656.819 42.8L39.7988 103.59V103L656.819 42.21V42.8Z" fill="#059FDB"/>
<path d="M656.819 43.3898L39.7988 104.18V103.59L656.819 42.7998V43.3898Z" fill="#009FDB"/>
<path d="M656.819 43.9806L39.7988 104.771V104.181L656.819 43.3906V43.9806Z" fill="#009EDB"/>
<path d="M656.819 44.5805L39.7988 105.37V104.77L656.819 43.9805V44.5805Z" fill="#009EDA"/>
<path d="M656.819 45.1701L39.7988 105.96V105.37L656.819 44.5801V45.1701Z" fill="#009DDA"/>
<path d="M656.819 45.7599L39.7988 106.55V105.96L656.819 45.1699V45.7599Z" fill="#009DDA"/>
<path d="M656.819 46.3498L39.7988 107.14V106.55L656.819 45.7598V46.3498Z" fill="#009CD9"/>
<path d="M656.819 46.9506L39.7988 107.741V107.141L656.819 46.3506V46.9506Z" fill="#009BD9"/>
<path d="M656.819 47.5304L39.7988 108.32V107.73L656.819 46.9404V47.5304Z" fill="#009BD9"/>
<path d="M656.819 48.13L39.7988 108.92V108.33L656.819 47.54V48.13Z" fill="#009AD9"/>
<path d="M656.819 48.7199L39.7988 109.51V108.92L656.819 48.1299V48.7199Z" fill="#009AD8"/>
<path d="M656.819 49.3207L39.7988 110.111V109.511L656.819 48.7207V49.3207Z" fill="#0099D8"/>
<path d="M656.819 49.9103L39.7988 110.7V110.11L656.819 49.3203V49.9103Z" fill="#0099D8"/>
<path d="M656.819 50.5004L39.7988 111.29V110.69L656.819 49.9004V50.5004Z" fill="#0098D7"/>
<path d="M656.819 51.09L39.7988 111.88V111.29L656.819 50.5V51.09Z" fill="#0098D7"/>
<path d="M656.819 51.6798L39.7988 112.47V111.88L656.819 51.0898V51.6798Z" fill="#0097D7"/>
<path d="M656.819 52.2707L39.7988 113.061V112.471L656.819 51.6807V52.2707Z" fill="#0097D7"/>
<path d="M656.819 52.8705L39.7988 113.661V113.061L656.819 52.2705V52.8705Z" fill="#0096D6"/>
<path d="M656.819 53.4601L39.7988 114.25V113.66L656.819 52.8701V53.4601Z" fill="#0096D6"/>
<path d="M656.819 54.05L39.7988 114.84V114.25L656.819 53.46V54.05Z" fill="#0095D6"/>
<path d="M656.819 54.6398L39.7988 115.43V114.84L656.819 54.0498V54.6398Z" fill="#0095D6"/>
<path d="M656.819 55.2406L39.7988 116.031V115.431L656.819 54.6406V55.2406Z" fill="#0094D5"/>
<path d="M656.819 55.8302L39.7988 116.62V116.03L656.819 55.2402V55.8302Z" fill="#0094D5"/>
<path d="M656.819 56.4201L39.7988 117.21V116.62L656.819 55.8301V56.4201Z" fill="#0094D5"/>
<path d="M656.819 57.0099L39.7988 117.8V117.21L656.819 56.4199V57.0099Z" fill="#0093D5"/>
<path d="M656.819 57.6098L39.7988 118.4V117.8L656.819 57.0098V57.6098Z" fill="#0093D4"/>
<path d="M656.819 58.2003L39.7988 118.99V118.4L656.819 57.6104V58.2003Z" fill="#0092D4"/>
<path d="M656.819 58.7904L39.7988 119.58V118.98L656.819 58.1904V58.7904Z" fill="#0092D4"/>
<path d="M656.819 59.38L39.7988 120.17V119.58L656.819 58.79V59.38Z" fill="#0091D4"/>
<path d="M656.819 59.9799L39.7988 120.77V120.17L656.819 59.3799V59.9799Z" fill="#0091D3"/>
<path d="M656.819 60.5705L39.7988 121.36V120.77L656.819 59.9805V60.5705Z" fill="#0090D3"/>
<path d="M656.819 61.1603L39.7988 121.95V121.36L656.819 60.5703V61.1603Z" fill="#0090D3"/>
<path d="M656.819 61.7502L39.7988 122.54V121.95L656.819 61.1602V61.7502Z" fill="#0090D3"/>
<path d="M656.819 62.34L39.7988 123.13V122.54L656.819 61.75V62.34Z" fill="#008FD2"/>
<path d="M656.819 62.9298L39.7988 123.72V123.13L656.819 62.3398V62.9298Z" fill="#008FD2"/>
<path d="M656.819 63.5307L39.7988 124.321V123.721L656.819 62.9307V63.5307Z" fill="#008ED2"/>
<path d="M656.819 64.1203L39.7988 124.91V124.32L656.819 63.5303V64.1203Z" fill="#008ED1"/>
<path d="M656.819 64.7101L39.7988 125.5V124.91L656.819 64.1201V64.7101Z" fill="#008DD1"/>
<path d="M656.819 65.3L39.7988 126.09V125.5L656.819 64.71V65.3Z" fill="#008DD1"/>
<path d="M656.819 65.8998L39.7988 126.69V126.09L656.819 65.2998V65.8998Z" fill="#008DD1"/>
<path d="M656.819 66.4904L39.7988 127.28V126.69L656.819 65.9004V66.4904Z" fill="#008CD0"/>
<path d="M656.819 67.0802L39.7988 127.87V127.28L656.819 66.4902V67.0802Z" fill="#008CD0"/>
<path d="M656.819 67.6701L39.7988 128.46V127.87L656.819 67.0801V67.6701Z" fill="#008BD0"/>
<path d="M656.819 68.2699L39.7988 129.06V128.46L656.819 67.6699V68.2699Z" fill="#008BD0"/>
<path d="M656.819 68.8605L39.7988 129.651V129.061L656.819 68.2705V68.8605Z" fill="#008BCF"/>
<path d="M656.819 69.4503L39.7988 130.24V129.65L656.819 68.8604V69.4503Z" fill="#008ACF"/>
<path d="M656.819 70.0402L39.7988 130.83V130.24L656.819 69.4502V70.0402Z" fill="#008ACF"/>
<path d="M656.819 70.64L39.7988 131.43V130.83L656.819 70.04V70.64Z" fill="#0089CF"/>
<path d="M656.819 71.2306L39.7988 132.021V131.431L656.819 70.6406V71.2306Z" fill="#0089CF"/>
<path d="M656.819 71.8207L39.7988 132.611V132.011L656.819 71.2207V71.8207Z" fill="#0089CE"/>
<path d="M656.819 72.4103L39.7988 133.2V132.61L656.819 71.8203V72.4103Z" fill="#0088CE"/>
<path d="M656.819 73.0002L39.7988 133.79V133.2L656.819 72.4102V73.0002Z" fill="#0088CE"/>
<path d="M656.819 73.59L39.7988 134.38V133.79L656.819 73V73.59Z" fill="#0088CE"/>
<path d="M656.819 74.1898L39.7988 134.98V134.38L656.819 73.5898V74.1898Z" fill="#0087CD"/>
<path d="M656.819 74.7804L39.7988 135.57V134.98L656.819 74.1904V74.7804Z" fill="#0087CD"/>
<path d="M656.819 75.3703L39.7988 136.16V135.57L656.819 74.7803V75.3703Z" fill="#0086CD"/>
<path d="M656.819 75.9601L39.7988 136.75V136.16L656.819 75.3701V75.9601Z" fill="#0086CD"/>
<path d="M656.819 76.56L39.7988 137.35V136.75L656.819 75.96V76.56Z" fill="#0086CD"/>
<path d="M656.819 77.1506L39.7988 137.941V137.351L656.819 76.5605V77.1506Z" fill="#0085CC"/>
<path d="M656.819 77.7404L39.7988 138.53V137.94L656.819 77.1504V77.7404Z" fill="#0085CC"/>
<path d="M656.819 78.3302L39.7988 139.12V138.53L656.819 77.7402V78.3302Z" fill="#0085CC"/>
<path d="M656.819 78.9301L39.7988 139.72V139.12L656.819 78.3301V78.9301Z" fill="#0084CC"/>
<path d="M656.819 79.5207L39.7988 140.311V139.721L656.819 78.9307V79.5207Z" fill="#0084CC"/>
<path d="M656.819 80.1105L39.7988 140.901V140.311L656.819 79.5205V80.1105Z" fill="#0084CB"/>
<path d="M656.819 80.7003L39.7988 141.49V140.9L656.819 80.1104V80.7003Z" fill="#0084CB"/>
<path d="M656.819 81.3002L39.7988 142.09V141.49L656.819 80.7002V81.3002Z" fill="#0083CB"/>
<path d="M656.819 81.8898L39.7988 142.68V142.09L656.819 81.2998V81.8898Z" fill="#0083CB"/>
<path d="M656.819 82.4806L39.7988 143.271V142.681L656.819 81.8906V82.4806Z" fill="#0083CB"/>
<path d="M656.819 83.0705L39.7988 143.86V143.27L656.819 82.4805V83.0705Z" fill="#0083CB"/>
<path d="M656.819 83.9503L39.7988 144.74V143.86L656.819 83.0703V83.9503Z" fill="#0083CB"/>
<path d="M656.819 84.8302L39.7988 145.61V144.74L656.819 83.9502V84.8302Z" fill="#0082CA"/>
<path d="M656.819 85.7001L39.7988 146.49V145.62L656.819 84.8301V85.7001Z" fill="#0081C9"/>
<path d="M656.819 86.5802L39.7988 147.37V146.49L656.819 85.7002V86.5802Z" fill="#0080C9"/>
<path d="M656.819 87.4601L39.7988 148.25V147.37L656.819 86.5801V87.4601Z" fill="#0080C8"/>
<path d="M656.819 88.33L39.7988 149.12V148.25L656.819 87.46V88.33Z" fill="#007FC7"/>
<path d="M656.819 89.2101L39.7988 150V149.12L656.819 88.3301V89.2101Z" fill="#007EC7"/>
<path d="M656.819 90.09L39.7988 150.88V150L656.819 89.21V90.09Z" fill="#007DC6"/>
<path d="M656.819 90.9598L39.7988 151.75V150.88L656.819 90.0898V90.9598Z" fill="#007DC5"/>
<path d="M656.819 91.84L39.7988 152.63V151.75L656.819 90.96V91.84Z" fill="#007CC5"/>
<path d="M656.819 92.7198L39.7988 153.51V152.63L656.819 91.8398V92.7198Z" fill="#007BC4"/>
<path d="M656.819 93.5907L39.7988 154.381V153.511L656.819 92.7207V93.5907Z" fill="#007BC3"/>
<path d="M656.819 94.4698L39.7988 155.26V154.38L656.819 93.5898V94.4698Z" fill="#007AC3"/>
<path d="M656.819 95.3505L39.7988 156.14V155.26L656.819 94.4805V95.3505Z" fill="#0079C2"/>
<path d="M656.819 96.2306L39.7988 157.021V156.141L656.819 95.3506V96.2306Z" fill="#0078C2"/>
<path d="M656.819 97.1105L39.7988 157.9V157.02L656.819 96.2305V97.1105Z" fill="#0078C1"/>
<path d="M656.819 97.9804L39.7988 158.77V157.89L656.819 97.1104V97.9804Z" fill="#0077C0"/>
<path d="M656.819 98.8605L39.7988 159.65V158.77L656.819 97.9805V98.8605Z" fill="#0076C0"/>
<path d="M656.819 99.7403L39.7988 160.53V159.65L656.819 98.8604V99.7403Z" fill="#0076BF"/>
<path d="M656.819 100.61L39.7988 161.4V160.52L656.819 99.7402V100.61Z" fill="#0075BE"/>
<path d="M656.819 101.49L39.7988 162.28V161.4L656.819 100.61V101.49Z" fill="#0074BE"/>
<path d="M656.819 102.37L39.7988 163.16V162.28L656.819 101.49V102.37Z" fill="#0073BD"/>
<path d="M656.819 103.24L39.7988 164.03V163.15L656.819 102.37V103.24Z" fill="#0073BC"/>
<path d="M656.819 104.12L39.7988 164.91V164.03L656.819 103.24V104.12Z" fill="#0072BC"/>
<path d="M656.819 105L39.7988 165.79V164.91L656.819 104.12V105Z" fill="#0071BB"/>
<path d="M656.819 105.88L39.7988 166.67V165.79L656.819 105V105.88Z" fill="#0071BB"/>
<path d="M656.819 106.75L39.7988 167.54V166.66L656.819 105.88V106.75Z" fill="#0070BA"/>
<path d="M656.819 107.63L39.7988 168.42V167.54L656.819 106.75V107.63Z" fill="#006FB9"/>
<path d="M656.819 108.51L39.7988 169.3V168.42L656.819 107.63V108.51Z" fill="#006FB9"/>
<path d="M656.819 109.38L39.7988 170.17V169.29L656.819 108.51V109.38Z" fill="#006EB8"/>
<path d="M656.819 110.26L39.7988 171.05V170.17L656.819 109.38V110.26Z" fill="#006DB8"/>
<path d="M656.819 111.14L39.7988 171.93V171.05L656.819 110.26V111.14Z" fill="#006DB7"/>
<path d="M656.819 112.011L39.7988 172.801V171.921L656.819 111.141V112.011Z" fill="#006CB6"/>
<path d="M656.819 112.89L39.7988 173.68V172.8L656.819 112.01V112.89Z" fill="#006BB6"/>
<path d="M656.819 113.771L39.7988 174.561V173.681L656.819 112.891V113.771Z" fill="#006BB5"/>
<path d="M656.819 114.65L39.7988 175.43V174.551L656.819 113.771V114.65Z" fill="#006AB5"/>
<path d="M656.819 115.53L39.7988 176.31V175.43L656.819 114.65V115.53Z" fill="#0069B4"/>
<path d="M656.819 116.4L39.7988 177.19V176.31L656.819 115.53V116.4Z" fill="#0069B4"/>
<path d="M656.819 117.28L39.7988 178.07V177.19L656.819 116.4V117.28Z" fill="#0068B3"/>
<path d="M656.819 118.16L39.7988 178.95V178.07L656.819 117.28V118.16Z" fill="#0067B2"/>
<path d="M656.819 119.03L39.7988 179.82V178.94L656.819 118.16V119.03Z" fill="#0067B2"/>
<path d="M656.819 119.91L39.7988 180.7V179.82L656.819 119.03V119.91Z" fill="#0066B1"/>
<path d="M656.819 120.79L39.7988 181.58V180.7L656.819 119.91V120.79Z" fill="#0065B1"/>
<path d="M656.819 121.66L39.7988 182.45V181.57L656.819 120.79V121.66Z" fill="#0065B0"/>
<path d="M656.819 122.54L39.7988 183.33V182.45L656.819 121.66V122.54Z" fill="#0064B0"/>
<path d="M656.819 123.42L39.7988 184.21V183.33L656.819 122.54V123.42Z" fill="#0063AF"/>
<path d="M656.819 124.29L39.7988 185.08V184.2L656.819 123.42V124.29Z" fill="#0063AE"/>
<path d="M656.819 125.17L39.7988 185.96V185.08L656.819 124.29V125.17Z" fill="#0062AE"/>
<path d="M656.819 126.05L39.7988 186.84V185.96L656.819 125.17V126.05Z" fill="#0061AD"/>
<path d="M656.819 126.93L39.7988 187.72V186.84L656.819 126.05V126.93Z" fill="#0061AD"/>
<path d="M656.819 127.801L39.7988 188.591V187.711L656.819 126.931V127.801Z" fill="#0060AC"/>
<path d="M656.819 128.681L39.7988 189.471V188.601L656.819 127.811V128.681Z" fill="#0060AC"/>
<path d="M656.819 129.561L39.7988 190.351V189.471L656.819 128.681V129.561Z" fill="#005FAC"/>
<path d="M656.819 130.431L39.7988 191.221V190.341L656.819 129.561V130.431Z" fill="#005FAB"/>
<path d="M656.819 131.31L39.7988 192.1V191.23L656.819 130.44V131.31Z" fill="#005EAB"/>
<path d="M656.819 132.191L39.7988 192.981V192.101L656.819 131.311V132.191Z" fill="#005DAA"/>
<path d="M656.819 133.06L39.7988 193.85V192.97L656.819 132.19V133.06Z" fill="#005DAA"/>
<path d="M656.819 133.94L39.7988 194.73V193.86L656.819 133.07V133.94Z" fill="#005CA9"/>
<path d="M656.819 134.82L39.7988 195.61V194.73L656.819 133.94V134.82Z" fill="#005CA9"/>
<path d="M656.819 135.7L39.7988 196.48V195.6L656.819 134.82V135.7Z" fill="#005BA8"/>
<path d="M656.819 136.58L39.7988 197.36V196.49L656.819 135.7V136.58Z" fill="#005BA8"/>
<path d="M656.819 137.45L39.7988 198.24V197.36L656.819 136.58V137.45Z" fill="#005AA7"/>
<path d="M656.819 138.33L39.7988 199.12V198.24L656.819 137.45V138.33Z" fill="#0059A7"/>
<path d="M656.819 139.2L39.7988 199.99V199.12L656.819 138.33V139.2Z" fill="#0059A6"/>
<path d="M656.819 140.08L39.7988 200.87V199.99L656.819 139.21V140.08Z" fill="#0058A6"/>
<path d="M656.819 140.96L39.7988 201.75V200.87L656.819 140.08V140.96Z" fill="#0058A6"/>
<path d="M656.819 141.84L39.7988 202.63V201.75L656.819 140.96V141.84Z" fill="#0057A5"/>
<path d="M656.819 142.71L39.7988 203.5V202.62L656.819 141.84V142.71Z" fill="#0057A5"/>
<path d="M656.819 143.59L39.7988 204.38V203.5L656.819 142.71V143.59Z" fill="#0056A4"/>
<path d="M656.819 144.47L39.7988 205.26V204.38L656.819 143.59V144.47Z" fill="#0056A4"/>
<path d="M656.819 145.341L39.7988 206.131V205.251L656.819 144.471V145.341Z" fill="#0055A4"/>
<path d="M656.819 146.22L39.7988 207.01V206.13L656.819 145.34V146.22Z" fill="#0055A3"/>
<path d="M656.819 147.101L39.7988 207.891V207.011L656.819 146.221V147.101Z" fill="#0054A3"/>
<path d="M656.819 147.981L39.7988 208.771V207.891L656.819 147.101V147.981Z" fill="#0054A2"/>
<path d="M656.819 148.85L39.7988 209.64V208.76L656.819 147.98V148.85Z" fill="#0053A2"/>
<path d="M656.819 149.73L39.7988 210.52V209.65L656.819 148.86V149.73Z" fill="#0053A2"/>
<path d="M656.819 150.61L39.7988 211.4V210.52L656.819 149.73V150.61Z" fill="#0053A1"/>
<path d="M656.819 151.48L39.7988 212.27V211.39L656.819 150.61V151.48Z" fill="#0052A1"/>
<path d="M656.819 152.36L39.7988 213.15V212.28L656.819 151.49V152.36Z" fill="#0052A1"/>
<path d="M656.819 153.24L39.7988 214.03V213.15L656.819 152.36V153.24Z" fill="#0051A0"/>
<path d="M656.819 154.11L39.7988 214.9V214.02L656.819 153.24V154.11Z" fill="#0051A0"/>
<path d="M656.819 154.99L39.7988 215.78V214.91L656.819 154.12V154.99Z" fill="#0050A0"/>
<path d="M656.819 155.87L39.7988 216.66V215.78L656.819 154.99V155.87Z" fill="#00509F"/>
<path d="M656.819 156.75L39.7988 217.54V216.66L656.819 155.87V156.75Z" fill="#004F9F"/>
<path d="M656.819 157.63L39.7988 218.42V217.54L656.819 156.75V157.63Z" fill="#004F9F"/>
<path d="M656.819 158.5L39.7988 219.29V218.41L656.819 157.62V158.5Z" fill="#004F9E"/>
<path d="M656.819 159.38L39.7988 220.17V219.29L656.819 158.5V159.38Z" fill="#004E9E"/>
<path d="M656.819 160.26L39.7988 221.05V220.17L656.819 159.38V160.26Z" fill="#004E9E"/>
<path d="M656.819 161.13L39.7988 221.92V221.04L656.819 160.25V161.13Z" fill="#004E9D"/>
<path d="M656.819 162.01L39.7988 222.8V221.92L656.819 161.13V162.01Z" fill="#004D9D"/>
<path d="M656.819 162.88L39.7988 223.67V222.8L656.819 162.01V162.88Z" fill="#004D9D"/>
<path d="M656.819 163.76L39.7988 224.55V223.67L656.819 162.88V163.76Z" fill="#004D9D"/>
<path d="M656.819 164.64L39.7988 225.43V224.55L656.819 163.76V164.64Z" fill="#004C9C"/>
<path d="M656.819 165.521L39.7988 226.311V225.431L656.819 164.641V165.521Z" fill="#004C9C"/>
<path d="M656.819 166.4L39.7988 227.18V226.301L656.819 165.521V166.4Z" fill="#004B9C"/>
<path d="M656.819 167.27L39.7988 228.06V227.18L656.819 166.4V167.27Z" fill="#004B9C"/>
<path d="M656.819 168.15L39.7988 228.94V228.06L656.819 167.28V168.15Z" fill="#004B9B"/>
<path d="M656.819 169.03L39.7988 229.82V228.94L656.819 168.15V169.03Z" fill="#004B9B"/>
<path d="M656.819 169.9L39.7988 230.69V229.81L656.819 169.03V169.9Z" fill="#004A9B"/>
<path d="M656.819 170.78L39.7988 231.57V230.69L656.819 169.91V170.78Z" fill="#004A9B"/>
<path d="M656.819 171.66L39.7988 232.45V231.57L656.819 170.78V171.66Z" fill="#004A9A"/>
<path d="M656.819 172.53L39.7988 233.32V232.44L656.819 171.66V172.53Z" fill="#00499A"/>
<path d="M656.819 173.41L39.7988 234.2V233.32L656.819 172.54V173.41Z" fill="#00499A"/>
<path d="M656.819 174.29L39.7988 235.08V234.2L656.819 173.41V174.29Z" fill="#00499A"/>
<path d="M656.819 175.16L39.7988 235.95V235.07L656.819 174.29V175.16Z" fill="#00499A"/>
<path d="M656.819 176.04L39.7988 236.83V235.95L656.819 175.17V176.04Z" fill="#004899"/>
<path d="M656.819 176.92L39.7988 237.71V236.83L656.819 176.04V176.92Z" fill="#014899"/>
<path d="M656.819 177.8L39.7988 238.59V237.71L656.819 176.92V177.8Z" fill="#024899"/>
<path d="M656.819 178.68L39.7988 239.47V238.59L656.819 177.8V178.68Z" fill="#034899"/>
<path d="M656.819 179.55L39.7988 240.34V239.46L656.819 178.67V179.55Z" fill="#034899"/>
<path d="M656.819 180.43L39.7988 241.22V240.34L656.819 179.55V180.43Z" fill="#044799"/>
<path d="M656.819 181.311L39.7988 242.101V241.221L656.819 180.431V181.311Z" fill="#054798"/>
<path d="M656.819 182.18L39.7988 242.97V242.09L656.819 181.3V182.18Z" fill="#054798"/>
<path d="M656.819 183.061L39.7988 243.851V242.971L656.819 182.181V183.061Z" fill="#064798"/>
<path d="M656.819 183.941L39.7988 244.731V243.851L656.819 183.061V183.941Z" fill="#074798"/>
<path d="M656.819 184.811L39.7988 245.601V244.721L656.819 183.931V184.811Z" fill="#084698"/>
<path d="M656.819 185.691L39.7988 246.481V245.601L656.819 184.811V185.691Z" fill="#084698"/>
<path d="M656.819 186.57L39.7988 247.36V246.48L656.819 185.69V186.57Z" fill="#084698"/>
<path d="M656.819 187.45L39.7988 248.23V247.35L656.819 186.57V187.45Z" fill="#094698"/>
<path d="M656.819 188.32L39.7988 249.11V248.23L656.819 187.45V188.32Z" fill="#094698"/>
<path d="M656.819 189.2L39.7988 249.99V249.11L656.819 188.33V189.2Z" fill="#0A4697"/>
<path d="M656.819 190.08L39.7988 250.87V249.99L656.819 189.2V190.08Z" fill="#0A4697"/>
<path d="M656.819 190.95L39.7988 251.74V250.86L656.819 190.08V190.95Z" fill="#0A4697"/>
<path d="M656.819 191.83L39.7988 252.62V251.74L656.819 190.96V191.83Z" fill="#0A4697"/>
<path d="M656.819 192.71L39.7988 253.5V252.62L656.819 191.83V192.71Z" fill="#0A4697"/>
<path d="M656.819 193.3L39.7988 254.09V253.5L656.819 192.71V193.3Z" fill="#0A4697"/>
<path d="M656.819 193.9L39.7988 254.69V254.09L656.819 193.3V193.9Z" fill="#0A4697"/>
<path d="M656.819 194.49L39.7988 255.28V254.69L656.819 193.9V194.49Z" fill="#0A4697"/>
<path d="M656.819 195.08L39.7988 255.87V255.28L656.819 194.49V195.08Z" fill="#0A4697"/>
<path d="M656.819 195.68L39.7988 256.47V255.87L656.819 195.09V195.68Z" fill="#0A4697"/>
<path d="M656.819 196.271L39.7988 257.061V256.461L656.819 195.681V196.271Z" fill="#0A4697"/>
<path d="M656.819 196.861L39.7988 257.65V257.061L656.819 196.271V196.861Z" fill="#0A4697"/>
<path d="M656.819 197.46L39.7988 258.25V257.66L656.819 196.87V197.46Z" fill="#0A4697"/>
<path d="M656.819 198.05L39.7988 258.84V258.25L656.819 197.46V198.05Z" fill="#0A4697"/>
<path d="M656.819 198.651L39.7988 259.441V258.841L656.819 198.061V198.651Z" fill="#0A4697"/>
<path d="M656.819 199.24L39.7988 260.03V259.44L656.819 198.65V199.24Z" fill="#0A4697"/>
<path d="M656.819 199.83L39.7988 260.62V260.03L656.819 199.24V199.83Z" fill="#0A4697"/>
<path d="M656.819 200.43L39.7988 261.22V260.62L656.819 199.84V200.43Z" fill="#0A4697"/>
<path d="M656.819 201.021L39.7988 261.811V261.221L656.819 200.431V201.021Z" fill="#0A4697"/>
<path d="M656.819 201.62L39.7988 262.411V261.811L656.819 201.021V201.62Z" fill="#0A4697"/>
<path d="M656.819 202.21L39.7988 263V262.41L656.819 201.62V202.21Z" fill="#0A4697"/>
<path d="M656.819 202.81L39.7988 263.6V263L656.819 202.21V202.81Z" fill="#0A4697"/>
<path d="M656.819 203.401L39.7988 264.191V263.591L656.819 202.811V203.401Z" fill="#094698"/>
<path d="M656.819 204L39.7988 264.78V264.19L656.819 203.4V204Z" fill="#094698"/>
<path d="M656.819 204.59L39.7988 265.38V264.78L656.819 204V204.59Z" fill="#094698"/>
<path d="M656.819 205.18L39.7988 265.97V265.38L656.819 204.59V205.18Z" fill="#094698"/>
<path d="M656.819 205.781L39.7988 266.571V265.971L656.819 205.181V205.781Z" fill="#094698"/>
<path d="M656.819 206.37L39.7988 267.16V266.56L656.819 205.78V206.37Z" fill="#094698"/>
<path d="M656.819 206.96L39.7988 267.75V267.16L656.819 206.37V206.96Z" fill="#094698"/>
<path d="M656.819 207.56L39.7988 268.35V267.75L656.819 206.96V207.56Z" fill="#094698"/>
<path d="M656.819 208.151L39.7988 268.941V268.341L656.819 207.561V208.151Z" fill="#084698"/>
<path d="M656.819 208.74L39.7988 269.53V268.94L656.819 208.15V208.74Z" fill="#084698"/>
<path d="M656.819 209.34L39.7988 270.13V269.53L656.819 208.75V209.34Z" fill="#084698"/>
<path d="M656.819 209.93L39.7988 270.72V270.13L656.819 209.34V209.93Z" fill="#084698"/>
<path d="M656.819 210.53L39.7988 271.32V270.72L656.819 209.94V210.53Z" fill="#074798"/>
<path d="M656.819 211.12L39.7988 271.91V271.32L656.819 210.53V211.12Z" fill="#074798"/>
<path d="M656.819 211.72L39.7988 272.5V271.91L656.819 211.12V211.72Z" fill="#064798"/>
<path d="M656.819 212.311L39.7988 273.101V272.501L656.819 211.721V212.311Z" fill="#064798"/>
<path d="M656.819 212.901L39.7988 273.691V273.101L656.819 212.311V212.901Z" fill="#064798"/>
<path d="M656.819 213.5L39.7988 274.29V273.69L656.819 212.9V213.5Z" fill="#054798"/>
<path d="M656.819 214.09L39.7988 274.88V274.28L656.819 213.5V214.09Z" fill="#054798"/>
<path d="M656.819 214.69L39.7988 275.48V274.88L656.819 214.09V214.69Z" fill="#054798"/>
<path d="M656.819 215.281L39.7988 276.071V275.471L656.819 214.681V215.281Z" fill="#044799"/>
<path d="M656.819 215.88L39.7988 276.66V276.07L656.819 215.28V215.88Z" fill="#044799"/>
<path d="M656.819 216.47L39.7988 277.26V276.66L656.819 215.88V216.47Z" fill="#034899"/>
<path d="M656.819 217.061L39.7988 277.851V277.261L656.819 216.471V217.061Z" fill="#034899"/>
<path d="M656.819 217.661L39.7988 278.451V277.851L656.819 217.061V217.661Z" fill="#034899"/>
<path d="M656.819 218.25L39.7988 279.04V278.44L656.819 217.66V218.25Z" fill="#024899"/>
<path d="M656.819 218.84L39.7988 279.63V279.03L656.819 218.25V218.84Z" fill="#024899"/>
<path d="M656.819 219.441L39.7988 280.231V279.641L656.819 218.851V219.441Z" fill="#014899"/>
<path d="M656.819 220.031L39.7988 280.821V280.221L656.819 219.431V220.031Z" fill="#004899"/>
<path d="M656.819 220.62L39.7988 281.41V280.82L656.819 220.03V220.62Z" fill="#00499A"/>
<path d="M656.819 221.22L39.7988 282.01V281.41L656.819 220.63V221.22Z" fill="#00499A"/>
<path d="M656.819 221.811L39.7988 282.601V282.011L656.819 221.221V221.811Z" fill="#00499A"/>
<path d="M656.819 222.411L39.7988 283.201V282.601L656.819 221.811V222.411Z" fill="#00499A"/>
<path d="M656.819 223L39.7988 283.79V283.2L656.819 222.41V223Z" fill="#00499A"/>
<path d="M656.819 223.59L39.7988 284.38V283.79L656.819 223V223.59Z" fill="#00499A"/>
<path d="M656.819 224.191L39.7988 284.981V284.381L656.819 223.601V224.191Z" fill="#004A9A"/>
<path d="M656.819 224.78L39.7988 285.57V284.98L656.819 224.19V224.78Z" fill="#004A9B"/>
<path d="M656.819 225.38L39.7988 286.17V285.57L656.819 224.78V225.38Z" fill="#004A9B"/>
<path d="M656.819 225.97L39.7988 286.76V286.17L656.819 225.38V225.97Z" fill="#004A9B"/>
<path d="M656.819 226.571L39.7988 287.361V286.761L656.819 225.971V226.571Z" fill="#004B9B"/>
<path d="M656.819 227.16L39.7988 287.95V287.36L656.819 226.57V227.16Z" fill="#004B9B"/>
<path d="M656.819 227.76L39.7988 288.54V287.95L656.819 227.16V227.76Z" fill="#004B9B"/>
<path d="M656.819 228.35L39.7988 289.14V288.54L656.819 227.76V228.35Z" fill="#004B9C"/>
<path d="M656.819 228.941L39.7988 289.731V289.131L656.819 228.351V228.941Z" fill="#004B9C"/>
<path d="M656.819 229.53L39.7988 290.32V289.73L656.819 228.94V229.53Z" fill="#004C9C"/>
<path d="M656.819 230.13L39.7988 290.92V290.32L656.819 229.53V230.13Z" fill="#004C9C"/>
<path d="M656.819 230.72L39.7988 291.51V290.91L656.819 230.13V230.72Z" fill="#004C9C"/>
<path d="M656.819 231.32L39.7988 292.11V291.51L656.819 230.73V231.32Z" fill="#004D9D"/>
<path d="M656.819 231.91L39.7988 292.7V292.11L656.819 231.32V231.91Z" fill="#004D9D"/>
<path d="M656.819 232.51L39.7988 293.3V292.7L656.819 231.91V232.51Z" fill="#004D9D"/>
<path d="M656.819 233.1L39.7988 293.89V293.29L656.819 232.51V233.1Z" fill="#004D9D"/>
<path d="M656.819 233.691L39.7988 294.481V293.891L656.819 233.101V233.691Z" fill="#004E9D"/>
<path d="M656.819 234.29L39.7988 295.08V294.48L656.819 233.69V234.29Z" fill="#004E9E"/>
<path d="M656.819 234.88L39.7988 295.67V295.08L656.819 234.29V234.88Z" fill="#004E9E"/>
<path d="M656.819 235.47L39.7988 296.26V295.67L656.819 234.88V235.47Z" fill="#004F9E"/>
<path d="M656.819 236.071L39.7988 296.861V296.261L656.819 235.471V236.071Z" fill="#004F9F"/>
<path d="M656.819 236.66L39.7988 297.45V296.86L656.819 236.07V236.66Z" fill="#004F9F"/>
<path d="M656.819 237.26L39.7988 298.05V297.45L656.819 236.66V237.26Z" fill="#00509F"/>
<path d="M656.819 237.85L39.7988 298.64V298.05L656.819 237.26V237.85Z" fill="#00509F"/>
<path d="M656.819 238.451L39.7988 299.241V298.641L656.819 237.851V238.451Z" fill="#0050A0"/>
<path d="M656.819 239.04L39.7988 299.83V299.23L656.819 238.45V239.04Z" fill="#0051A0"/>
<path d="M656.819 239.63L39.7988 300.42V299.83L656.819 239.04V239.63Z" fill="#0051A0"/>
<path d="M656.819 240.23L39.7988 301.02V300.42L656.819 239.63V240.23Z" fill="#0052A1"/>
<path d="M656.819 240.82L39.7988 301.61V301.01L656.819 240.23V240.82Z" fill="#0052A1"/>
<path d="M656.819 241.41L39.7988 302.2V301.61L656.819 240.82V241.41Z" fill="#0052A1"/>
<path d="M656.819 242.01L39.7988 302.8V302.21L656.819 241.42V242.01Z" fill="#0053A2"/>
<path d="M656.819 242.6L39.7988 303.39V302.79L656.819 242.01V242.6Z" fill="#0053A2"/>
<path d="M656.819 243.2L39.7988 303.99V303.39L656.819 242.61V243.2Z" fill="#0054A2"/>
<path d="M656.819 243.79L39.7988 304.58V303.98L656.819 243.2V243.79Z" fill="#0054A3"/>
<path d="M656.819 244.38L39.7988 305.17V304.58L656.819 243.79V244.38Z" fill="#0055A3"/>
<path d="M656.819 244.98L39.7988 305.77V305.17L656.819 244.38V244.98Z" fill="#0055A3"/>
<path d="M656.819 245.57L39.7988 306.36V305.77L656.819 244.98V245.57Z" fill="#0056A4"/>
<path d="M656.819 246.17L39.7988 306.96V306.36L656.819 245.57V246.17Z" fill="#0056A4"/>
<path d="M656.819 246.76L39.7988 307.55V306.96L656.819 246.17V246.76Z" fill="#0057A5"/>
<path d="M656.819 247.35L39.7988 308.14V307.55L656.819 246.76V247.35Z" fill="#0057A5"/>
<path d="M656.819 247.951L39.7988 308.741V308.141L656.819 247.351V247.951Z" fill="#0058A5"/>
<path d="M656.819 248.54L39.7988 309.33V308.74L656.819 247.95V248.54Z" fill="#0058A6"/>
<path d="M656.819 249.14L39.7988 309.93V309.33L656.819 248.54V249.14Z" fill="#0059A6"/>
<path d="M656.819 249.731L39.7988 310.521V309.931L656.819 249.141V249.731Z" fill="#0059A7"/>
<path d="M656.819 250.33L39.7988 311.12V310.52L656.819 249.73V250.33Z" fill="#005AA7"/>
<path d="M656.819 250.92L39.7988 311.71V311.11L656.819 250.33V250.92Z" fill="#005AA8"/>
<path d="M656.819 251.51L39.7988 312.3V311.7L656.819 250.92V251.51Z" fill="#005BA8"/>
<path d="M656.819 252.1L39.7988 312.89V312.3L656.819 251.51V252.1Z" fill="#005CA9"/>
<path d="M656.819 252.7L39.7988 313.49V312.89L656.819 252.11V252.7Z" fill="#005CA9"/>
<path d="M656.819 253.3L39.7988 314.09V313.49L656.819 252.7V253.3Z" fill="#005DAA"/>
<path d="M656.819 253.89L39.7988 314.68V314.08L656.819 253.3V253.89Z" fill="#005DAA"/>
<path d="M656.819 254.481L39.7988 315.271V314.681L656.819 253.891V254.481Z" fill="#005EAB"/>
<path d="M656.819 255.08L39.7988 315.87V315.27L656.819 254.48V255.08Z" fill="#005FAB"/>
<path d="M656.819 255.67L39.7988 316.46V315.86L656.819 255.08V255.67Z" fill="#005FAC"/>
<path d="M656.819 256.26L39.7988 317.05V316.46L656.819 255.67V256.26Z" fill="#0060AC"/>
<path d="M656.819 256.86L39.7988 317.65V317.05L656.819 256.26V256.86Z" fill="#0060AD"/>
<path d="M656.819 257.45L39.7988 318.24V317.65L656.819 256.86V257.45Z" fill="#0061AD"/>
<path d="M656.819 258.05L39.7988 318.84V318.24L656.819 257.45V258.05Z" fill="#0062AE"/>
<path d="M656.819 258.64L39.7988 319.43V318.84L656.819 258.05V258.64Z" fill="#0062AE"/>
<path d="M656.819 259.231L39.7988 320.021V319.431L656.819 258.641V259.231Z" fill="#0063AF"/>
<path d="M656.819 259.83L39.7988 320.62V320.02L656.819 259.23V259.83Z" fill="#0064AF"/>
<path d="M656.819 260.42L39.7988 321.21V320.62L656.819 259.83V260.42Z" fill="#0064B0"/>
<path d="M656.819 261.02L39.7988 321.81V321.21L656.819 260.42V261.02Z" fill="#0065B1"/>
<path d="M656.819 261.611L39.7988 322.401V321.811L656.819 261.021V261.611Z" fill="#0066B1"/>
<path d="M656.819 262.21L39.7988 323V322.4L656.819 261.61V262.21Z" fill="#0067B2"/>
<path d="M656.819 262.8L39.7988 323.59V322.99L656.819 262.21V262.8Z" fill="#0068B3"/>
<path d="M656.819 263.39L39.7988 324.18V323.58L656.819 262.8V263.39Z" fill="#0068B3"/>
<path d="M656.819 263.99L39.7988 324.78V324.18L656.819 263.4V263.99Z" fill="#0069B4"/>
<path d="M656.819 264.58L39.7988 325.37V324.78L656.819 263.99V264.58Z" fill="#006AB5"/>
<path d="M656.819 265.18L39.7988 325.97V325.37L656.819 264.58V265.18Z" fill="#006BB5"/>
<path d="M656.819 265.771L39.7988 326.561V325.961L656.819 265.181V265.771Z" fill="#006BB6"/>
<path d="M656.819 266.361L39.7988 327.151V326.551L656.819 265.771V266.361Z" fill="#006CB7"/>
<path d="M656.819 266.95L39.7988 327.74V327.15L656.819 266.36V266.95Z" fill="#006DB7"/>
<path d="M656.819 267.55L39.7988 328.34V327.74L656.819 266.95V267.55Z" fill="#006EB8"/>
<path d="M656.819 268.14L39.7988 328.93V328.34L656.819 267.55V268.14Z" fill="#006FB9"/>
<path d="M656.819 268.741L39.7988 329.531V328.931L656.819 268.141V268.741Z" fill="#0070BA"/>
<path d="M656.819 269.33L39.7988 330.12V329.53L656.819 268.74V269.33Z" fill="#0070BA"/>
<path d="M656.819 269.93L39.7988 330.72V330.12L656.819 269.33V269.93Z" fill="#0071BB"/>
<path d="M656.819 270.521L39.7988 331.311V330.721L656.819 269.931V270.521Z" fill="#0072BC"/>
<path d="M656.819 271.111L39.7988 331.901V331.311L656.819 270.521V271.111Z" fill="#0073BD"/>
<path d="M656.819 271.71L39.7988 332.5V331.9L656.819 271.11V271.71Z" fill="#0074BD"/>
<path d="M656.819 272.3L39.7988 333.09V332.5L656.819 271.71V272.3Z" fill="#0075BE"/>
<path d="M656.819 272.9L39.7988 333.69V333.09L656.819 272.3V272.9Z" fill="#0076BF"/>
<path d="M656.819 273.49L39.7988 334.28V333.68L656.819 272.9V273.49Z" fill="#0076C0"/>
<path d="M656.819 274.08L39.7988 334.87V334.28L656.819 273.49V274.08Z" fill="#0077C1"/>
<path d="M656.819 274.68L39.7988 335.47V334.87L656.819 274.08V274.68Z" fill="#0078C1"/>
<path d="M656.819 275.271L39.7988 336.061V335.461L656.819 274.681V275.271Z" fill="#0079C2"/>
<path d="M656.819 275.87L39.7988 336.66V336.06L656.819 275.28V275.87Z" fill="#007AC3"/>
<path d="M656.819 276.46L39.7988 337.25V336.66L656.819 275.87V276.46Z" fill="#007BC4"/>
<path d="M656.819 277.05L39.7988 337.84V337.25L656.819 276.46V277.05Z" fill="#007CC5"/>
<path d="M656.819 277.651L39.8188 338.431L39.7988 338.211V337.841L656.819 277.061V277.651Z" fill="#007DC5"/>
<path d="M656.819 278.24L39.7495 339.03L39.6895 338.44L656.819 277.65V278.24Z" fill="#007EC6"/>
<path d="M656.82 278.83L39.8 339.62L39.75 339.03L656.82 278.24V278.83Z" fill="#007FC7"/>
<path d="M656.819 279.42L39.8488 340.21L39.7988 339.62L656.819 278.83V279.42Z" fill="#0080C8"/>
<path d="M656.82 280.02L39.9096 340.8L39.8496 340.21L656.82 279.42V280.02Z" fill="#0081C9"/>
<path d="M656.82 280.611L39.9602 341.381L39.9102 340.801L656.82 280.021V280.611Z" fill="#0082CA"/>
<path d="M656.819 281.2L40.009 341.97L39.959 341.38L656.819 280.61V281.2Z" fill="#0083CB"/>
<path d="M656.82 281.8L40.0595 342.56L40.0195 341.97L656.82 281.2V281.8Z" fill="#0084CB"/>
<path d="M656.819 282.39L40.1186 343.15L40.0586 342.56L656.819 281.8V282.39Z" fill="#0085CC"/>
<path d="M656.819 282.991L40.1691 343.741L40.1191 343.151L656.819 282.391V282.991Z" fill="#0086CD"/>
<path d="M656.82 283.58L40.2199 344.33L40.1699 343.74L656.82 282.99V283.58Z" fill="#0087CE"/>
<path d="M656.819 284.18L40.2787 344.92L40.2188 344.33L656.819 283.58V284.18Z" fill="#0088CF"/>
<path d="M656.819 284.771L40.3293 345.511L40.2793 344.921L656.819 284.181V284.771Z" fill="#0089D0"/>
<path d="M656.82 285.361L40.3901 346.091L40.3301 345.511L656.82 284.771V285.361Z" fill="#008AD1"/>
<path d="M656.819 285.96L40.4387 346.68L40.3887 346.09L656.819 285.36V285.96Z" fill="#008BD2"/>
<path d="M656.819 286.55L40.4895 347.27L40.4395 346.68L656.819 285.96V286.55Z" fill="#008CD3"/>
<path d="M656.82 287.15L40.5402 347.86L40.4902 347.27L656.82 286.55V287.15Z" fill="#008DD4"/>
<path d="M656.819 287.74L40.5891 348.45L40.5391 347.86L656.819 287.15V287.74Z" fill="#008ED5"/>
<path d="M656.82 288.33L40.6498 349.04L40.5898 348.45L656.82 287.74V288.33Z" fill="#008FD6"/>
<path d="M656.82 288.93L40.7004 349.63L40.6504 349.04L656.82 288.34V288.93Z" fill="#0090D7"/>
<path d="M656.819 289.52L40.7492 350.21L40.6992 349.63L656.819 288.92V289.52Z" fill="#0091D7"/>
<path d="M656.82 290.12L40.81 350.81L40.75 350.22L656.82 289.53V290.12Z" fill="#0092D8"/>
<path d="M656.819 290.71L40.8586 351.4L40.8086 350.81L656.819 290.12V290.71Z" fill="#0093D9"/>
<path d="M42.9594 374.71L40.8594 351.32L656.829 290.63L656.809 374.85L42.9594 374.71Z" fill="#0093D9"/>
</g>
<g style="mix-blend-mode:lighten">
<mask id="mask2_1488_857" style="mask-type:luminance" maskUnits="userSpaceOnUse" x="59" y="25" width="370" height="221">
<path d="M428.269 25.4795H59.4688V245.799H428.269V25.4795Z" fill="white"/>
</mask>
<g mask="url(#mask2_1488_857)">
<mask id="mask3_1488_857" style="mask-type:luminance" maskUnits="userSpaceOnUse" x="80" y="41" width="349" height="205">
<path d="M82.0792 245.719C82.0792 245.719 59.5192 153.929 197.219 80.3491C299.829 25.5091 428.269 45.1791 428.269 45.1791C428.269 45.1791 307.659 49.2491 201.919 123.729C80.1892 209.469 82.0792 245.719 82.0792 245.719Z" fill="white"/>
</mask>
<g mask="url(#mask3_1488_857)">
<path d="M329.349 25.5395L59.4688 144.139L59.4888 25.4795L329.349 25.5395Z" fill="#E4E1F2"/>
<path d="M329.899 25.4795L59.4688 144.32V144.079L329.359 25.4795H329.899Z" fill="#E4E1F2"/>
<path d="M330.449 25.4795L59.4688 144.57V144.32L329.899 25.4795H330.449Z" fill="#E4E1F1"/>
<path d="M330.989 25.4795L59.4688 144.799V144.57L330.449 25.4795H330.989Z" fill="#E3E0F1"/>
<path d="M331.539 25.4795L59.4688 145.039V144.799L330.989 25.4795H331.539Z" fill="#E3E0F1"/>
<path d="M332.089 25.4795L59.4688 145.279V145.039L331.549 25.4795H332.089Z" fill="#E3E0F1"/>
<path d="M332.639 25.4795L59.4688 145.529V145.279L332.089 25.4795H332.639Z" fill="#E2DFF1"/>
<path d="M333.189 25.4795L59.4688 145.77V145.529L332.639 25.4795H333.189Z" fill="#E2DFF1"/>
<path d="M333.729 25.4795L59.4688 146.009V145.77L333.189 25.4795H333.729Z" fill="#E1DEF0"/>
<path d="M334.279 25.4795L59.4688 146.249V146.009L333.729 25.4795H334.279Z" fill="#E1DEF0"/>
<path d="M334.829 25.4795L59.4688 146.49V146.249L334.289 25.4795H334.829Z" fill="#E0DEF0"/>
<path d="M335.379 25.4795L59.4785 146.729V146.49L334.829 25.4795H335.379Z" fill="#E0DDF0"/>
<path d="M335.929 25.4795L59.4688 146.969V146.729L335.379 25.4795H335.929Z" fill="#DFDDF0"/>
<path d="M336.469 25.4795L59.4688 147.21V146.969L335.929 25.4795H336.469Z" fill="#DFDCEF"/>
<path d="M337.019 25.4795L59.4785 147.449V147.21L336.479 25.4795H337.019Z" fill="#DEDCEF"/>
<path d="M337.569 25.4795L59.4785 147.689V147.449L337.019 25.4795H337.569Z" fill="#DEDBEF"/>
<path d="M338.119 25.4795L59.4785 147.929V147.689L337.569 25.4795H338.119Z" fill="#DDDBEF"/>
<path d="M338.669 25.4795L59.4688 148.179V147.929L338.119 25.4795H338.669Z" fill="#DDDAEE"/>
<path d="M339.209 25.4795L59.4688 148.419V148.179L338.669 25.4795H339.209Z" fill="#DCDAEE"/>
<path d="M339.759 25.4795L59.4785 148.66V148.419L339.219 25.4795H339.759Z" fill="#DBD9EE"/>
<path d="M340.309 25.4795L59.4785 148.899V148.66L339.759 25.4795H340.309Z" fill="#DBD8EE"/>
<path d="M340.859 25.4795L59.4688 149.139V148.899L340.309 25.4795H340.859Z" fill="#DAD8ED"/>
<path d="M341.409 25.4795L59.4688 149.38V149.139L340.859 25.4795H341.409Z" fill="#DAD7ED"/>
<path d="M341.949 25.4795L59.4785 149.619V149.38L341.409 25.4795H341.949Z" fill="#D9D7ED"/>
<path d="M342.499 25.4795L59.4785 149.859V149.619L341.949 25.4795H342.499Z" fill="#D8D6ED"/>
<path d="M343.049 25.4795L59.4688 150.1V149.859L342.499 25.4795H343.049Z" fill="#D8D6EC"/>
<path d="M343.599 25.4795L59.4688 150.339V150.1L343.049 25.4795H343.599Z" fill="#D7D5EC"/>
<path d="M344.149 25.4795L59.4688 150.579V150.339L343.599 25.4795H344.149Z" fill="#D7D5EC"/>
<path d="M344.689 25.4795L59.4688 150.82V150.579L344.149 25.4795H344.689Z" fill="#D6D4EC"/>
<path d="M345.239 25.4795L59.4785 151.07V150.82L344.689 25.4795H345.239Z" fill="#D5D3EB"/>
<path d="M345.789 25.4795L59.4688 151.299V151.07L345.239 25.4795H345.789Z" fill="#D5D3EB"/>
<path d="M346.339 25.4795L59.4688 151.539V151.299L345.789 25.4795H346.339Z" fill="#D4D2EB"/>
<path d="M346.879 25.4795L59.4688 151.789V151.539L346.339 25.4795H346.879Z" fill="#D3D2EA"/>
<path d="M347.429 25.4795L59.4688 152.029V151.789L346.879 25.4795H347.429Z" fill="#D3D1EA"/>
<path d="M347.979 25.4795L59.4688 152.27V152.029L347.439 25.4795H347.979Z" fill="#D2D0EA"/>
<path d="M348.529 25.4795L59.4688 152.509V152.27L347.979 25.4795H348.529Z" fill="#D1D0E9"/>
<path d="M349.069 25.4795L59.4688 152.749V152.509L348.529 25.4795H349.069Z" fill="#D0CFE9"/>
<path d="M349.619 25.4795L59.4688 152.99V152.749L349.079 25.4795H349.619Z" fill="#D0CEE9"/>
<path d="M350.169 25.4795L59.4688 153.229V152.99L349.619 25.4795H350.169Z" fill="#CFCEE9"/>
<path d="M350.719 25.4795L59.4785 153.469V153.229L350.179 25.4795H350.719Z" fill="#CECDE8"/>
<path d="M351.269 25.4795L59.4785 153.71V153.469L350.719 25.4795H351.269Z" fill="#CECCE8"/>
<path d="M351.809 25.4795L59.4688 153.949V153.71L351.269 25.4795H351.809Z" fill="#CDCCE8"/>
<path d="M352.359 25.4795L59.4688 154.189V153.949L351.809 25.4795H352.359Z" fill="#CCCBE7"/>
<path d="M352.909 25.4795L59.4785 154.439V154.189L352.369 25.4795H352.909Z" fill="#CCCBE7"/>
<path d="M353.459 25.4795L59.4785 154.679V154.439L352.909 25.4795H353.459Z" fill="#CBCAE7"/>
<path d="M353.999 25.4795L59.4688 154.919V154.679L353.459 25.4795H353.999Z" fill="#CAC9E6"/>
<path d="M354.549 25.4795L59.4688 155.16V154.919L353.999 25.4795H354.549Z" fill="#CAC9E6"/>
<path d="M355.099 25.4795L59.4688 155.399V155.16L354.549 25.4795H355.099Z" fill="#C9C8E6"/>
<path d="M355.649 25.4795L59.4785 155.639V155.399L355.109 25.4795H355.649Z" fill="#C8C7E5"/>
<path d="M356.199 25.4795L59.4785 155.88V155.639L355.649 25.4795H356.199Z" fill="#C7C7E5"/>
<path d="M356.739 25.4795L59.4688 156.119V155.88L356.199 25.4795H356.739Z" fill="#C7C6E5"/>
<path d="M357.289 25.4795L59.4688 156.359V156.119L356.739 25.4795H357.289Z" fill="#C6C5E4"/>
<path d="M357.839 25.4795L59.4785 156.6V156.359L357.299 25.4795H357.839Z" fill="#C5C5E4"/>
<path d="M358.389 25.4795L59.4785 156.839V156.6L357.839 25.4795H358.389Z" fill="#C4C4E3"/>
<path d="M358.939 25.4795L59.4688 157.079V156.839L358.389 25.4795H358.939Z" fill="#C4C3E3"/>
<path d="M359.489 25.4795L59.4688 157.329V157.079L358.939 25.4795H359.489Z" fill="#C3C2E3"/>
<path d="M360.029 25.4795L59.4688 157.559V157.329L359.489 25.4795H360.029Z" fill="#C2C2E2"/>
<path d="M360.579 25.4795L59.4785 157.809V157.559L360.039 25.4795H360.579Z" fill="#C1C1E2"/>
<path d="M361.129 25.4795L59.4688 158.049V157.809L360.579 25.4795H361.129Z" fill="#C1C0E2"/>
<path d="M361.679 25.4795L59.4688 158.289V158.049L361.129 25.4795H361.679Z" fill="#C0C0E1"/>
<path d="M362.229 25.4795L59.4688 158.529V158.289L361.679 25.4795H362.229Z" fill="#BFBFE1"/>
<path d="M362.769 25.4795L59.4688 158.77V158.529L362.229 25.4795H362.769Z" fill="#BEBEE1"/>
<path d="M363.319 25.4795L59.4688 159.009V158.77L362.769 25.4795H363.319Z" fill="#BDBDE0"/>
<path d="M363.869 25.4795L59.4688 159.249V159.009L363.319 25.4795H363.869Z" fill="#BDBDE0"/>
<path d="M364.419 25.4795L59.4688 159.49V159.249L363.869 25.4795H364.419Z" fill="#BCBCDF"/>
<path d="M364.959 25.4795L59.4688 159.729V159.49L364.419 25.4795H364.959Z" fill="#BBBBDF"/>
<path d="M365.509 25.4795L59.4688 159.969V159.729L364.959 25.4795H365.509Z" fill="#BABADF"/>
<path d="M366.059 25.4795L59.4688 160.21V159.969L365.509 25.4795H366.059Z" fill="#B9BADE"/>
<path d="M366.609 25.4795L59.4785 160.449V160.21L366.059 25.4795H366.609Z" fill="#B8B9DE"/>
<path d="M367.159 25.4795L59.4785 160.699V160.449L366.609 25.4795H367.159Z" fill="#B7B8DE"/>
<path d="M367.699 25.4795L59.4688 160.939V160.699L367.159 25.4795H367.699Z" fill="#B7B7DD"/>
<path d="M368.249 25.4795L59.4688 161.179V160.939L367.699 25.4795H368.249Z" fill="#B6B7DD"/>
<path d="M368.799 25.4795L59.4785 161.419V161.179L368.249 25.4795H368.799Z" fill="#B5B6DC"/>
<path d="M369.349 25.4795L59.4785 161.66V161.419L368.799 25.4795H369.349Z" fill="#B4B5DC"/>
<path d="M369.889 25.4795L59.4688 161.899V161.66L369.349 25.4795H369.889Z" fill="#B3B5DC"/>
<path d="M370.439 25.4795L59.4688 162.139V161.899L369.889 25.4795H370.439Z" fill="#B2B4DB"/>
<path d="M370.989 25.4795L59.4785 162.38V162.139L370.449 25.4795H370.989Z" fill="#B2B3DB"/>
<path d="M371.539 25.4795L59.4785 162.619V162.38L370.989 25.4795H371.539Z" fill="#B1B2DA"/>
<path d="M372.089 25.4795L59.4785 162.859V162.619L371.539 25.4795H372.089Z" fill="#B0B2DA"/>
<path d="M372.629 25.4795L59.4688 163.1V162.859L372.089 25.4795H372.629Z" fill="#AFB1DA"/>
<path d="M373.179 25.4795L59.4688 163.35V163.1L372.629 25.4795H373.179Z" fill="#AEB0D9"/>
<path d="M373.729 25.4795L59.4688 163.589V163.35L373.179 25.4795H373.729Z" fill="#ADAFD9"/>
<path d="M374.279 25.4795L59.4785 163.82V163.589L373.729 25.4795H374.279Z" fill="#ACAFD8"/>
<path d="M374.819 25.4795L59.4688 164.059V163.82L374.279 25.4795H374.819Z" fill="#ABAED8"/>
<path d="M375.369 25.4795L59.4688 164.299V164.059L374.819 25.4795H375.369Z" fill="#AAADD8"/>
<path d="M375.919 25.4795L59.4688 164.549V164.299L375.369 25.4795H375.919Z" fill="#A9ACD7"/>
<path d="M376.469 25.4795L59.4688 164.789V164.549L375.919 25.4795H376.469Z" fill="#A9ACD7"/>
<path d="M377.019 25.4795L59.4688 165.029V164.789L376.469 25.4795H377.019Z" fill="#A8ABD6"/>
<path d="M377.559 25.4795L59.4688 165.27V165.029L377.019 25.4795H377.559Z" fill="#A7AAD6"/>
<path d="M378.109 25.4795L59.4688 165.509V165.27L377.559 25.4795H378.109Z" fill="#A6A9D6"/>
<path d="M378.659 25.4795L59.4688 165.749V165.509L378.109 25.4795H378.659Z" fill="#A5A9D5"/>
<path d="M379.209 25.4795L59.4688 165.99V165.749L378.659 25.4795H379.209Z" fill="#A4A8D5"/>
<path d="M379.759 25.4795L59.4688 166.229V165.99L379.209 25.4795H379.759Z" fill="#A3A7D4"/>
<path d="M380.299 25.4795L59.4688 166.469V166.229L379.759 25.4795H380.299Z" fill="#A2A6D4"/>
<path d="M380.849 25.4795L59.4688 166.71V166.469L380.299 25.4795H380.849Z" fill="#A1A5D3"/>
<path d="M381.399 25.4795L59.4688 166.949V166.71L380.849 25.4795H381.399Z" fill="#A1A5D3"/>
<path d="M381.949 25.4795L59.4785 167.199V166.949L381.399 25.4795H381.949Z" fill="#A0A4D3"/>
<path d="M382.499 25.4795L59.4785 167.439V167.199L381.949 25.4795H382.499Z" fill="#9FA3D2"/>
<path d="M383.039 25.4795L59.4785 167.679V167.439L382.499 25.4795H383.039Z" fill="#9EA3D2"/>
<path d="M383.589 25.4795L59.4688 167.919V167.679L383.039 25.4795H383.589Z" fill="#9DA2D1"/>
<path d="M384.139 25.4795L59.4688 168.16V167.919L383.589 25.4795H384.139Z" fill="#9CA1D1"/>
<path d="M384.689 25.4795L59.4785 168.399V168.16L384.139 25.4795H384.689Z" fill="#9BA0D0"/>
<path d="M385.239 25.4795L59.4785 168.639V168.399L384.689 25.4795H385.239Z" fill="#9A9FD0"/>
<path d="M385.779 25.4795L59.4688 168.88V168.639L385.239 25.4795H385.779Z" fill="#999FD0"/>
<path d="M386.329 25.4795L59.4688 169.119V168.88L385.779 25.4795H386.329Z" fill="#999ECF"/>
<path d="M386.879 25.4795L59.4785 169.359V169.119L386.329 25.4795H386.879Z" fill="#989DCF"/>
<path d="M387.429 25.4795L59.4785 169.6V169.359L386.879 25.4795H387.429Z" fill="#979CCE"/>
<path d="M387.979 25.4795L59.4785 169.85V169.6L387.429 25.4795H387.979Z" fill="#969CCE"/>
<path d="M388.519 25.4795L59.4688 170.089V169.85L387.979 25.4795H388.519Z" fill="#959BCD"/>
<path d="M389.069 25.4795L59.4688 170.32V170.089L388.519 25.4795H389.069Z" fill="#949ACD"/>
<path d="M389.619 25.4795L59.4785 170.559V170.32L389.069 25.4795H389.619Z" fill="#9399CD"/>
<path d="M390.159 25.4795L59.4688 170.799V170.559L389.609 25.4795H390.159Z" fill="#9298CC"/>
<path d="M390.709 25.4795L59.4688 171.049V170.799L390.169 25.4795H390.709Z" fill="#9198CC"/>
<path d="M391.259 25.4795L59.4688 171.289V171.049L390.709 25.4795H391.259Z" fill="#9097CB"/>
<path d="M391.809 25.4795L59.4688 171.529V171.289L391.259 25.4795H391.809Z" fill="#8F96CB"/>
<path d="M392.349 25.4795L59.4688 171.77V171.529L391.809 25.4795H392.349Z" fill="#8E95CA"/>
<path d="M392.899 25.4795L59.4688 172.009V171.77L392.359 25.4795H392.899Z" fill="#8D94CA"/>
<path d="M393.449 25.4795L59.4688 172.249V172.009L392.899 25.4795H393.449Z" fill="#8C94C9"/>
<path d="M393.999 25.4795L59.4688 172.49V172.249L393.449 25.4795H393.999Z" fill="#8B93C9"/>
<path d="M394.549 25.4795L59.4688 172.729V172.49L393.999 25.4795H394.549Z" fill="#8A92C8"/>
<path d="M395.089 25.4795L59.4688 172.969V172.729L394.549 25.4795H395.089Z" fill="#8A91C8"/>
<path d="M395.639 25.4795L59.4688 173.21V172.969L395.099 25.4795H395.639Z" fill="#8990C8"/>
<path d="M396.189 25.4795L59.4785 173.449V173.21L395.639 25.4795H396.189Z" fill="#8790C7"/>
<path d="M396.739 25.4795L59.4688 173.699V173.449L396.189 25.4795H396.739Z" fill="#868FC7"/>
<path d="M397.289 25.4795L59.4688 173.939V173.689L396.739 25.4795H397.289Z" fill="#858EC6"/>
<path d="M397.829 25.4795L59.4785 174.179V173.939L397.289 25.4795H397.829Z" fill="#858DC6"/>
<path d="M398.379 25.4795L59.4785 174.419V174.179L397.829 25.4795H398.379Z" fill="#838CC5"/>
<path d="M398.929 25.4795L59.4688 174.66V174.419L398.379 25.4795H398.929Z" fill="#828CC5"/>
<path d="M399.479 25.4795L59.4688 174.899V174.66L398.929 25.4795H399.479Z" fill="#818BC4"/>
<path d="M400.029 25.4795L59.4688 175.139V174.899L399.479 25.4795H400.029Z" fill="#808AC4"/>
<path d="M400.569 25.4795L59.4785 175.38V175.139L400.029 25.4795H400.569Z" fill="#7F89C3"/>
<path d="M401.119 25.4795L59.4785 175.619V175.38L400.569 25.4795H401.119Z" fill="#7E89C3"/>
<path d="M401.669 25.4795L59.4688 175.859V175.619L401.119 25.4795H401.669Z" fill="#7D88C2"/>
<path d="M402.219 25.4795L59.4688 176.1V175.859L401.669 25.4795H402.219Z" fill="#7C87C2"/>
<path d="M402.769 25.4795L59.4785 176.35V176.1L402.219 25.4795H402.769Z" fill="#7B86C1"/>
<path d="M403.309 25.4795L59.4785 176.579V176.339L402.769 25.4795H403.309Z" fill="#7A85C1"/>
<path d="M403.859 25.4795L59.4688 176.82V176.579L403.309 25.4795H403.859Z" fill="#7985C1"/>
<path d="M404.409 25.4795L59.4688 177.059V176.82L403.859 25.4795H404.409Z" fill="#7884C0"/>
<path d="M404.959 25.4795L59.4688 177.309V177.059L404.409 25.4795H404.959Z" fill="#7783C0"/>
<path d="M405.499 25.4795L59.4688 177.549V177.309L404.959 25.4795H405.499Z" fill="#7682BF"/>
<path d="M406.049 25.4795L59.4688 177.789V177.549L405.499 25.4795H406.049Z" fill="#7581BF"/>
<path d="M406.599 25.4795L59.4688 178.029V177.789L406.059 25.4795H406.599Z" fill="#7481BE"/>
<path d="M407.149 25.4795L59.4688 178.27V178.029L406.599 25.4795H407.149Z" fill="#7380BE"/>
<path d="M407.689 25.4795L59.4688 178.509V178.27L407.149 25.4795H407.689Z" fill="#727FBD"/>
<path d="M408.239 25.4795L59.4688 178.749V178.509L407.689 25.4795H408.239Z" fill="#717EBD"/>
<path d="M408.789 25.4795L59.4688 178.99V178.749L408.249 25.4795H408.789Z" fill="#707EBD"/>
<path d="M409.339 25.4795L59.4688 179.229V178.99L408.789 25.4795H409.339Z" fill="#6F7DBC"/>
<path d="M409.879 25.4795L59.4688 179.469V179.229L409.339 25.4795H409.879Z" fill="#6E7CBC"/>
<path d="M410.429 25.4795L59.4688 179.71V179.469L409.889 25.4795H410.429Z" fill="#6D7BBB"/>
<path d="M410.979 25.4795L59.4688 179.949V179.71L410.429 25.4795H410.979Z" fill="#6B7BBB"/>
<path d="M411.529 25.4795L59.4785 180.199V179.949L410.989 25.4795H411.529Z" fill="#6B7ABA"/>
<path d="M412.079 25.4795L59.4785 180.439V180.199L411.529 25.4795H412.079Z" fill="#6A79BA"/>
<path d="M412.619 25.4795L59.4688 180.679V180.439L412.079 25.4795H412.619Z" fill="#6878B9"/>
<path d="M413.169 25.4795L59.4688 180.919V180.679L412.619 25.4795H413.169Z" fill="#6777B9"/>
<path d="M413.719 25.4795L59.4785 181.16V180.919L413.179 25.4795H413.719Z" fill="#6677B8"/>
<path d="M414.269 25.4795L59.4785 181.399V181.16L413.719 25.4795H414.269Z" fill="#6576B8"/>
<path d="M414.819 25.4795L59.4688 181.639V181.399L414.269 25.4795H414.819Z" fill="#6475B7"/>
<path d="M415.359 25.4795L59.4688 181.88V181.639L414.819 25.4795H415.359Z" fill="#6374B7"/>
<path d="M415.909 25.4795L59.4688 182.119V181.88L415.359 25.4795H415.909Z" fill="#6273B6"/>
<path d="M416.459 25.4795L59.4785 182.359V182.119L415.919 25.4795H416.459Z" fill="#6173B6"/>
<path d="M417.009 25.4795L59.4785 182.6V182.359L416.459 25.4795H417.009Z" fill="#6072B5"/>
<path d="M417.559 25.4795L59.4688 182.85V182.6L417.009 25.4795H417.559Z" fill="#5F71B5"/>
<path d="M418.109 25.4795L59.4688 183.079V182.85L417.559 25.4795H418.109Z" fill="#5E70B4"/>
<path d="M418.649 25.4795L59.4785 183.32V183.079L418.109 25.4795H418.649Z" fill="#5D70B4"/>
<path d="M419.199 25.4795L59.4688 183.57V183.32L418.649 25.4795H419.199Z" fill="#5B6FB4"/>
<path d="M419.749 25.4795L59.4688 183.809V183.57L419.199 25.4795H419.749Z" fill="#5B6EB3"/>
<path d="M420.299 25.4795L59.4688 184.049V183.809L419.749 25.4795H420.299Z" fill="#596DB3"/>
<path d="M420.839 25.4795L59.4688 184.289V184.049L420.299 25.4795H420.839Z" fill="#586DB2"/>
<path d="M421.389 25.4795L59.4688 184.529V184.289L420.839 25.4795H421.389Z" fill="#576CB2"/>
<path d="M421.939 25.4795L59.4688 184.77V184.529L421.389 25.4795H421.939Z" fill="#566BB1"/>
<path d="M422.489 25.4795L59.4688 185.009V184.77L421.939 25.4795H422.489Z" fill="#556BB1"/>
<path d="M423.039 25.4795L59.4688 185.249V185.009L422.489 25.4795H423.039Z" fill="#546AB0"/>
<path d="M423.579 25.4795L59.4688 185.49V185.249L423.039 25.4795H423.579Z" fill="#5369B0"/>
<path d="M424.129 25.4795L59.4688 185.729V185.49L423.579 25.4795H424.129Z" fill="#5268AF"/>
<path d="M424.679 25.4795L59.4688 185.969V185.729L424.129 25.4795H424.679Z" fill="#5067AF"/>
<path d="M425.229 25.4795L59.4688 186.219V185.969L424.679 25.4795H425.229Z" fill="#4F67AE"/>
<path d="M425.769 25.4795L59.4688 186.46V186.219L425.229 25.4795H425.769Z" fill="#4E66AE"/>
<path d="M426.319 25.4795L59.4688 186.699V186.46L425.769 25.4795H426.319Z" fill="#4D65AD"/>
<path d="M426.679 25.4795L426.709 25.5495L59.4688 186.939V186.699L426.319 25.4795H426.679Z" fill="#4C65AD"/>
<path d="M426.709 25.6094L426.789 25.8094L59.4785 187.229V186.989L426.709 25.6094Z" fill="#4B64AC"/>
<path d="M426.789 25.8096L426.869 26.0196L59.4688 187.48V187.23L426.789 25.8096Z" fill="#4A63AC"/>
<path d="M426.869 26.0195L426.949 26.2195L59.4688 187.72V187.48L426.869 26.0195Z" fill="#4862AB"/>
<path d="M426.949 26.2197L427.039 26.4297L59.4688 187.96V187.72L426.949 26.2197Z" fill="#4762AB"/>
<path d="M427.039 26.4297L427.119 26.6297L59.4688 188.19V187.96L427.039 26.4297Z" fill="#4661AA"/>
<path d="M427.119 26.6299L427.199 26.8399L59.4688 188.44V188.19L427.119 26.6299Z" fill="#4560AA"/>
<path d="M427.199 26.8398L427.279 27.0398L59.4688 188.68V188.43L427.199 26.8398Z" fill="#4460A9"/>
<path d="M427.279 27.0391L427.359 27.2491L59.4688 188.919V188.679L427.279 27.0391Z" fill="#435FA9"/>
<path d="M427.359 27.249L427.449 27.449L59.4688 189.159V188.919L427.359 27.249Z" fill="#425EA9"/>
<path d="M427.449 27.4492L427.529 27.6592L59.4688 189.399V189.159L427.449 27.4492Z" fill="#415DA8"/>
<path d="M427.529 27.6592L427.609 27.8592L59.4688 189.639V189.399L427.529 27.6592Z" fill="#405DA8"/>
<path d="M427.609 27.8594L427.689 28.0694L59.4785 189.879V189.639L427.609 27.8594Z" fill="#3E5CA7"/>
<path d="M427.689 28.0693L427.779 28.2693L59.4785 190.119V189.889L427.689 28.0693Z" fill="#3D5BA7"/>
<path d="M427.769 28.2695L427.849 28.4795L59.4688 190.36V190.12L427.769 28.2695Z" fill="#3C5BA6"/>
<path d="M427.849 28.4795L427.939 28.6795L59.4688 190.6V190.359L427.849 28.4795Z" fill="#3B5AA6"/>
<path d="M427.939 28.6797L428.019 28.8797L59.4688 190.85V190.6L427.939 28.6797Z" fill="#3A59A5"/>
<path d="M428.019 28.8799L428.099 29.0899L59.4688 191.08V190.84L428.019 28.8799Z" fill="#3859A5"/>
<path d="M428.099 29.0898L428.189 29.2898L59.4688 191.33V191.09L428.099 29.0898Z" fill="#3758A4"/>
<path d="M428.169 29.2998L428.209 29.3998V29.5198L59.4785 191.57V191.32L428.169 29.2998Z" fill="#3657A4"/>
<path d="M428.209 29.7595L59.4688 191.8V191.56L428.209 29.5195V29.7595Z" fill="#3557A3"/>
<path d="M428.209 29.9998L59.4688 192.05V191.81L428.209 29.7598V29.9998Z" fill="#3456A3"/>
<path d="M428.209 30.239L59.4688 192.289V192.049L428.209 29.999V30.239Z" fill="#3255A2"/>
<path d="M428.209 30.4793L59.4688 192.529V192.289L428.209 30.2393V30.4793Z" fill="#3154A2"/>
<path d="M428.209 30.7195L59.4688 192.77V192.529L428.209 30.4795V30.7195Z" fill="#3054A1"/>
<path d="M428.209 30.9697L59.4688 193.01V192.77L428.209 30.7197V30.9697Z" fill="#2F53A1"/>
<path d="M428.209 31.2097L59.4688 193.25V193.01L428.209 30.9697V31.2097Z" fill="#2E53A1"/>
<path d="M428.209 31.45L59.4688 193.49V193.25L428.209 31.21V31.45Z" fill="#2D52A0"/>
<path d="M428.209 31.6892L59.4688 193.729V193.489L428.209 31.4492V31.6892Z" fill="#2B51A0"/>
<path d="M428.209 31.9295L59.4688 193.969V193.729L428.209 31.6895V31.9295Z" fill="#2A519F"/>
<path d="M428.209 32.1697L59.4688 194.21V193.97L428.209 31.9297V32.1697Z" fill="#29509F"/>
<path d="M428.209 32.4099L59.4688 194.45V194.21L428.209 32.1699V32.4099Z" fill="#274F9E"/>
<path d="M428.209 32.6492L59.4688 194.699V194.459L428.209 32.4092V32.6492Z" fill="#264F9E"/>
<path d="M428.209 32.8894L59.4688 194.929V194.689L428.209 32.6494V32.8894Z" fill="#254E9D"/>
<path d="M428.209 33.1297L59.4688 195.17V194.93L428.209 32.8896V33.1297Z" fill="#234D9D"/>
<path d="M428.209 33.3797L59.4688 195.42V195.18L428.209 33.1396V33.3797Z" fill="#214D9C"/>
<path d="M428.209 33.6199L59.4688 195.66V195.42L428.209 33.3799V33.6199Z" fill="#204C9C"/>
<path d="M428.209 33.8594L59.4688 195.899V195.659L428.209 33.6094V33.8594Z" fill="#1F4C9C"/>
<path d="M428.209 34.0994L59.4688 196.139V195.899L428.209 33.8594V34.0994Z" fill="#1D4B9B"/>
<path d="M428.209 34.3396L59.4688 196.38V196.14L428.209 34.0996V34.3396Z" fill="#1B4A9B"/>
<path d="M428.209 34.5798L59.4688 196.62V196.38L428.209 34.3398V34.5798Z" fill="#194A9A"/>
<path d="M428.209 34.8191L59.4688 196.859V196.619L428.209 34.5791V34.8191Z" fill="#17499A"/>
<path d="M428.209 35.0593L59.4688 197.099V196.859L428.209 34.8193V35.0593Z" fill="#164899"/>
<path d="M428.209 35.2996L59.4688 197.35V197.1L428.209 35.0596V35.2996Z" fill="#134899"/>
<path d="M428.209 35.5398L59.4688 197.59V197.35L428.209 35.2998V35.5398Z" fill="#114798"/>
<path d="M428.209 35.7891L59.4688 197.829V197.589L428.209 35.5391V35.7891Z" fill="#0E4698"/>
<path d="M428.209 36.0191L59.4688 198.069V197.829L428.209 35.7891V36.0191Z" fill="#0A4697"/>
<path d="M428.199 81.6295L72.5887 237.91L59.4688 205.15V198.07L428.209 36.0195L428.199 81.6295Z" fill="#0A4697"/>
<path d="M75.7081 245.72L72.5781 237.91L428.208 81.6299L428.178 245.8L75.7081 245.72Z" fill="#0A4697"/>
</g>
</g>
</g>
<path d="M523.77 247.76C511.23 247.76 504.22 243.13 501.69 235.67L495.12 217.11C491.63 207.32 488.25 205.5 479.61 204.51C477.86 204.33 475.92 204.17 473.81 204L465.86 246.95H451.53C437 246.95 429.93 239.47 431.9 228.86L450.06 130.87C460.75 130.87 480.28 130.5 490.69 130.5L505.79 130.91C534.84 130.91 552.94 144.35 549.1 165.07C546.29 180.31 532.12 193.25 518.71 195.73C524.71 198.21 527.27 202.36 530.7 211.47L537.67 230.05C540.34 236.85 542.92 242 544.49 243.98L544.35 244.8C539.46 246.8 531.82 247.78 523.77 247.78M490.19 155.95C488.64 155.95 485.42 156.29 482.61 156.62L477.96 181.81C482.37 182.31 487.09 182.31 492.76 182.31C503.38 182.31 509.93 175.52 511.12 169.06C512.64 160.77 508.64 155.96 497.85 155.96H490.19V155.95Z" fill="#003E99"/>
<path d="M523.789 252.63C506.369 252.63 499.919 244.39 497.569 237.48L491.009 218.95C488.199 211.06 486.369 210.13 479.109 209.3C478.539 209.25 477.949 209.19 477.329 209.13L470.109 248.1C469.709 250.26 467.909 251.81 465.819 251.81H451.479C442.139 251.81 435.009 249.01 430.849 243.72C427.569 239.55 426.429 234.2 427.539 228.25L445.709 130.16C446.109 128.01 447.909 126.45 450.009 126.45C455.379 126.45 462.989 126.36 470.549 126.27C478.039 126.18 485.489 126.09 490.679 126.09L505.909 126.5C525.029 126.5 540.009 132.08 547.979 142.21C553.219 148.86 555.099 157.14 553.429 166.15C550.989 179.35 540.719 191.77 528.379 197.57C530.919 200.67 532.789 204.72 534.789 210.04L541.759 228.64C544.399 235.38 546.789 239.96 547.879 241.33C548.699 242.37 549.049 243.73 548.829 245.06L548.689 245.88C548.419 247.45 547.399 248.77 545.969 249.35C540.769 251.48 532.889 252.65 523.769 252.65M473.799 199.42C473.909 199.42 474.019 199.42 474.139 199.43C476.279 199.6 478.259 199.77 480.029 199.95C489.879 201.08 494.969 203.59 499.219 215.51L505.789 234.08C507.849 240.14 513.899 243.18 523.769 243.18C529.209 243.18 534.179 242.73 538.099 241.89C536.219 238.21 534.489 233.96 533.629 231.77L526.639 213.12C523.379 204.46 521.419 201.75 517.109 199.97C515.289 199.22 514.169 197.29 514.369 195.25C514.569 193.21 516.029 191.56 517.959 191.2C530.449 188.89 542.499 176.77 544.819 164.18C545.989 157.86 544.779 152.36 541.209 147.83C535.029 139.98 522.129 135.47 505.809 135.47L490.599 135.06C485.559 135.06 478.149 135.15 470.699 135.24C464.679 135.31 458.619 135.38 453.689 135.41L436.209 229.71C435.609 232.93 436.109 235.58 437.689 237.6C440.089 240.66 445.019 242.35 451.549 242.35H462.269L469.539 203.11C469.939 200.94 471.759 199.4 473.829 199.4M492.749 186.89C487.049 186.89 482.119 186.89 477.489 186.37C476.269 186.23 475.169 185.57 474.439 184.54C473.709 183.51 473.429 182.21 473.659 180.95L478.309 155.75C478.679 153.78 480.219 152.29 482.129 152.07C486.429 151.58 488.759 151.38 490.189 151.38H497.849C504.909 151.38 509.999 153.3 512.979 157.07C515.559 160.34 516.379 164.66 515.409 169.92C513.869 178.35 505.589 186.89 492.759 186.89M483.179 177.61C486.039 177.73 489.159 177.73 492.759 177.73C501.789 177.73 506.119 172.03 506.819 168.19C507.269 165.74 507.079 163.96 506.239 162.9C505.039 161.38 502.059 160.54 497.849 160.54H490.179C489.349 160.54 487.779 160.67 486.279 160.82L483.179 177.61Z" fill="#003E99"/>
<path d="M291.65 250.309C255.74 250.309 239.57 231.949 246.44 194.849L258.27 130.779H273.21C289.95 130.979 296.11 136.879 292.83 154.599L285.17 195.929C282.02 213.009 288.69 218.269 299.18 218.269C308.25 218.269 316.54 212.789 319.93 194.459L331.69 131.069H346.61C361.92 130.999 369.15 137.749 366.03 154.619L358.38 195.949C351.49 233.039 325.71 250.329 291.64 250.319" fill="#003E99"/>
<path d="M291.65 254.89C271.85 254.89 257.53 249.46 249.12 238.76C240.92 228.35 238.58 213.28 242.15 193.98L253.98 130.09C254.38 127.93 256.18 126.38 258.28 126.2H273.22C279.8 126.39 289.14 127.15 294.26 133.65C298.08 138.5 298.99 145.43 297.14 155.47L289.48 196.8C288.25 203.46 288.64 208.29 290.6 210.79C292.14 212.74 294.95 213.69 299.2 213.69C304.67 213.69 312.32 211.61 315.65 193.59L327.41 130.12C327.81 127.97 329.61 126.41 331.7 126.5H346.63C356.31 126.43 362.99 128.93 367.04 134.08C371 139.11 372.08 146.11 370.34 155.5L362.69 196.83C355.83 233.75 329.94 254.92 291.66 254.91M261.88 135.64L250.74 195.72C247.69 212.21 249.41 224.73 255.87 232.94C262.54 241.43 274.59 245.73 291.65 245.73C325.85 245.73 348.03 227.75 354.1 195.06L361.75 153.73C362.94 147.29 362.45 142.63 360.29 139.88C358.03 137.01 353.44 135.56 346.62 135.35H335.31L324.24 195.32C320.03 218.06 308.3 222.84 299.2 222.84C292.28 222.84 287.12 220.74 283.86 216.61C280.08 211.8 279.11 204.75 280.89 195.05L288.55 153.72C289.85 146.68 289.51 142.02 287.51 139.47C285.43 136.83 280.75 135.54 273.21 135.64H261.88Z" fill="#003E99"/>
<path d="M198.319 128.18C234.209 128.18 250.379 146.54 243.509 183.65L231.669 247.52H216.739C199.989 247.53 193.829 241.63 197.119 223.93L204.769 182.58C207.949 165.52 201.259 160.24 190.759 160.24C181.689 160.24 173.409 165.73 170.009 184.06L158.249 247.81H143.319C127.989 247.52 120.769 240.77 123.909 223.91L131.559 182.56C138.429 145.47 164.219 128.18 198.299 128.19" fill="#003E99"/>
<path d="M231.669 252.09H216.739C210.149 252.11 200.799 251.35 195.679 244.85C191.869 240 190.959 233.07 192.819 223.05L200.469 181.71C201.709 175.06 201.329 170.23 199.359 167.73C197.839 165.8 194.939 164.82 190.749 164.82C185.279 164.82 177.629 166.9 174.299 184.93L162.529 248.4C162.129 250.55 160.329 252.11 158.239 252.39H143.319C133.629 252.11 126.949 249.6 122.899 244.45C118.949 239.43 117.879 232.42 119.619 223.04L127.269 181.7C134.109 144.77 159.999 123.61 198.309 123.62C218.099 123.62 232.409 129.05 240.819 139.74C249.009 150.16 251.359 165.23 247.789 184.54L235.949 248.43C235.549 250.58 233.749 252.14 231.659 252.11M190.759 155.65C197.699 155.65 202.859 157.75 206.119 161.9C209.909 166.71 210.869 173.76 209.059 183.45L201.409 224.79C200.099 231.83 200.429 236.48 202.429 239.02C204.509 241.66 209.189 242.95 216.739 242.93H228.059L239.209 182.77C242.259 166.27 240.539 153.75 234.079 145.54C227.409 137.06 215.369 132.76 198.309 132.75C164.089 132.75 141.919 150.73 135.859 183.42L128.209 224.76C127.009 231.2 127.499 235.86 129.649 238.6C131.909 241.47 136.509 242.92 143.319 243.21H154.639L165.719 183.16C169.929 160.41 181.659 155.64 190.759 155.64" fill="#003E99"/>
<path d="M392.5 110.549C398.3 106.529 405.87 102.729 413.94 102.729H417.96L412.71 131.059H445.24L442.6 145.249C440.75 155.199 429.22 162.819 420.53 162.819H406.88L399.12 204.709C397.67 212.499 401.44 217.129 408.89 217.129C417.95 217.129 422.34 216.289 426.67 214.609H427.72L424.82 230.229C423.05 239.939 412.92 248.789 392.93 248.789C373.96 248.789 355.33 239.299 361.25 207.419L374.57 135.459C376.53 124.899 383.94 116.459 392.5 110.559" fill="#003E99"/>
<path d="M392.928 253.38C383.548 253.38 370.668 251.22 362.598 240.96C356.138 232.75 354.238 221.17 356.958 206.55L370.278 134.59C372.778 121.14 382.428 112.02 390.088 106.74C398.308 101.05 406.338 98.1602 413.948 98.1602H417.948C419.258 98.1602 420.498 98.7702 421.328 99.8302C422.158 100.88 422.498 102.28 422.248 103.62L418.008 126.48H445.148C445.938 126.48 446.728 126.68 447.408 127.09C449.088 128.12 449.878 130.08 449.528 131.95L446.898 146.12C444.628 158.3 431.118 167.39 420.538 167.39H410.488L403.418 205.57C403.158 206.95 402.908 209.47 404.028 210.9C404.858 211.96 406.598 212.55 408.898 212.55C417.698 212.55 421.518 211.74 425.158 210.32C425.648 210.13 426.158 210.03 426.678 210.03H427.658C428.448 210.03 429.238 210.22 429.918 210.64C431.588 211.66 432.368 213.62 432.028 215.49L429.118 231.11C427.158 241.87 416.618 253.39 392.938 253.38M412.708 107.24C407.168 107.56 401.168 109.93 394.868 114.29C388.578 118.63 380.678 125.98 378.758 136.35L365.368 208.67C363.168 220.54 364.448 229.62 369.188 235.64C375.118 243.19 385.348 244.78 392.888 244.78C411.328 244.78 419.298 237.08 420.618 229.86L422.238 221.16C418.618 221.89 414.488 222.18 408.938 222.18C402.528 222.18 399.038 219.45 397.238 217.16C395.438 214.87 393.548 210.76 394.778 204.17L402.598 161.97C403.008 159.8 404.818 158.24 406.918 158.24H420.708C427.558 158.24 437.128 151.84 438.508 144.36L440.128 135.63H412.788C411.478 135.63 410.228 135.01 409.398 133.95C408.568 132.89 408.228 131.49 408.478 130.14L412.728 107.23L412.708 107.24Z" fill="#003E99"/>
<path d="M578.479 124.51C567.389 124.51 559.949 115.64 561.979 104.69C564.019 93.7201 574.739 84.8701 585.829 84.8701C596.909 84.8701 604.129 93.7301 602.119 104.7C600.089 115.66 589.579 124.51 578.479 124.51ZM573.619 248.74C553.229 248.74 539.239 238.18 544.309 210.73L558.449 134.5H567.929C589.739 134.5 595.599 141.05 591.689 162.16L583.789 204.82C581.859 215.16 585.939 218.33 596.629 218.33H601.289L599.089 230.16C596.509 244.1 585.549 248.74 573.619 248.74Z" fill="#003E99"/>
<path d="M573.62 253.33C560.89 253.33 551.06 249.39 545.2 241.95C539.22 234.36 537.48 223.57 540.01 209.86L554.15 133.63C554.55 131.47 556.35 129.92 558.45 129.92H567.93C581.21 129.92 588.76 132.32 593.18 137.92C597.36 143.23 598.22 150.98 595.99 163.05L588.08 205.71C587.5 208.81 587.58 211.02 588.31 211.95C588.84 212.63 590.63 213.76 596.63 213.76H601.28C602.59 213.76 603.82 214.37 604.66 215.43C605.49 216.49 605.83 217.88 605.58 219.22L603.39 231.04C600.73 245.42 590.16 253.33 573.62 253.33ZM562.08 139.07L548.65 211.48C546.64 222.34 547.77 230.57 552 235.94C557.22 242.58 566.65 243.97 573.63 243.97C585.83 243.97 592.94 238.98 594.77 229.13L595.95 222.77C590.95 222.72 584.98 221.99 581.55 217.63C579.03 214.42 578.36 209.91 579.49 203.83L587.38 161.25C589.04 152.26 588.74 146.7 586.4 143.74C583.9 140.56 578.04 139.09 567.94 139.08H562.08V139.07ZM578.48 129.09C571.7 129.09 565.57 126.24 561.66 121.27C557.9 116.49 556.49 110.29 557.69 103.81C560.14 90.61 572.5 80.29 585.82 80.29C592.62 80.29 598.52 83.02 602.43 87.98C606.2 92.76 607.61 99 606.41 105.56C603.97 118.76 591.7 129.09 578.47 129.09M585.83 89.45C576.86 89.45 567.9 96.83 566.28 105.56C565.59 109.31 566.34 112.82 568.41 115.45C570.68 118.34 574.26 119.93 578.49 119.93C587.52 119.93 596.19 112.71 597.84 103.82C598.54 100 597.78 96.44 595.71 93.81C593.49 91 589.99 89.45 585.84 89.45" fill="#003E99"/>
<path d="M523.77 247.76C511.23 247.76 504.22 243.13 501.69 235.67L495.12 217.11C491.63 207.32 488.25 205.5 479.61 204.51C477.86 204.33 475.92 204.17 473.81 204L465.86 246.95H451.53C437 246.95 429.93 239.47 431.9 228.86L450.06 130.87C460.75 130.87 480.28 130.5 490.69 130.5L505.79 130.91C534.84 130.91 552.94 144.35 549.1 165.07C546.29 180.31 532.12 193.25 518.71 195.73C524.71 198.21 527.27 202.36 530.7 211.47L537.67 230.05C540.34 236.85 542.92 242 544.49 243.98L544.35 244.8C539.46 246.8 531.82 247.78 523.77 247.78M490.19 155.95C488.64 155.95 485.42 156.29 482.61 156.62L477.96 181.81C482.37 182.31 487.09 182.31 492.76 182.31C503.38 182.31 509.93 175.52 511.12 169.06C512.64 160.77 508.64 155.96 497.85 155.96H490.19V155.95Z" fill="white"/>
<path d="M291.65 250.309C255.74 250.309 239.57 231.949 246.44 194.849L258.27 130.779H273.21C289.95 130.979 296.11 136.879 292.83 154.599L285.17 195.929C282.02 213.009 288.69 218.269 299.18 218.269C308.25 218.269 316.54 212.789 319.93 194.459L331.69 131.069H346.61C361.92 130.999 369.15 137.749 366.03 154.619L358.38 195.949C351.49 233.039 325.71 250.329 291.64 250.319" fill="white"/>
<path d="M198.319 128.18C234.209 128.18 250.379 146.54 243.509 183.65L231.669 247.52H216.739C199.989 247.53 193.829 241.63 197.119 223.93L204.769 182.58C207.949 165.52 201.259 160.24 190.759 160.24C181.689 160.24 173.409 165.73 170.009 184.06L158.249 247.81H143.319C127.989 247.52 120.769 240.77 123.909 223.91L131.559 182.56C138.429 145.47 164.219 128.18 198.299 128.19" fill="white"/>
<path d="M392.5 110.549C398.3 106.529 405.87 102.729 413.94 102.729H417.96L412.71 131.059H445.24L442.6 145.249C440.75 155.199 429.22 162.819 420.53 162.819H406.88L399.12 204.709C397.67 212.499 401.44 217.129 408.89 217.129C417.95 217.129 422.34 216.289 426.67 214.609H427.72L424.82 230.229C423.05 239.939 412.92 248.789 392.93 248.789C373.96 248.789 355.33 239.299 361.25 207.419L374.57 135.459C376.53 124.899 383.94 116.459 392.5 110.559" fill="white"/>
<path d="M578.479 124.51C567.389 124.51 559.949 115.64 561.979 104.69C564.019 93.7201 574.739 84.8701 585.829 84.8701C596.909 84.8701 604.129 93.7301 602.119 104.7C600.089 115.66 589.579 124.51 578.479 124.51ZM573.619 248.74C553.229 248.74 539.239 238.18 544.309 210.73L558.449 134.5H567.929C589.739 134.5 595.599 141.05 591.689 162.16L583.789 204.82C581.859 215.16 585.939 218.33 596.629 218.33H601.289L599.089 230.16C596.509 244.1 585.549 248.74 573.619 248.74Z" fill="white"/>
</svg>
